<svg width="216" height="260" viewBox="0 0 216 260" fill="none" xmlns="http://www.w3.org/2000/svg">
<g clip-path="url(#clip0_3969_310533)">
<path d="M132.531 164.334C136.511 158.36 135.117 151.097 131.407 146.912C129.544 141.193 125.151 136.212 118.69 134.753C116.091 124.989 101.507 120.825 88.8491 126.744C80.9726 122.569 70.2684 122.348 62.2721 126.89C60.3526 127.981 57.4893 129.758 56.9181 129.876C56.2964 130.045 38.8824 131.07 34.7288 149.674C32.6689 158.92 34.4648 169.323 40.0884 172.65C38.9517 178.74 42.2158 189.697 49.7308 192.387C54.6241 194.136 59.9425 190.665 64.7272 191.214C80.6449 193.076 118.07 178.65 119.971 176.458C124.241 171.554 129.359 170.394 132.531 164.334Z" fill="#2B7AE8"/>
<path d="M42.0585 228.141C41.6502 233.695 39.9761 240.907 46.0136 249.804C51.8376 258.38 62.289 259.419 62.289 259.419L68.8433 224.182L64.6111 222.437H43.5173C43.5173 222.437 42.1671 226.67 42.0585 228.141Z" fill="#59BDF0"/>
<path d="M129.083 247.507C129.083 249.901 128.11 255.414 129.083 256.388C130.057 257.362 156.469 256.553 156.469 256.553C156.469 256.553 156.054 253.026 144.393 248.549C132.731 244.071 136.34 232.509 136.34 232.509L126.072 235.287C126.072 235.287 129.083 245.111 129.083 247.507Z" fill="#FB9390"/>
<path d="M156.469 256.553C156.469 256.553 156.095 253.322 145.827 249.116C139.022 251.332 132.46 251.012 128.876 250.562C128.657 252.998 128.424 255.731 129.084 256.388C130.057 257.364 156.469 256.553 156.469 256.553Z" fill="#7CCBF2"/>
<path d="M138.383 239.13C138.383 239.13 141.61 244.961 141.61 247.357C141.61 249.753 140.636 255.264 141.61 256.24C142.428 257.057 165.526 256.503 172.96 256.304C173.14 256.299 173.314 256.237 173.457 256.128C173.6 256.019 173.705 255.868 173.758 255.696C173.81 255.523 173.807 255.339 173.75 255.169C173.692 254.998 173.582 254.85 173.436 254.745C171.466 253.344 167.631 251.07 160.664 248.399C151.887 245.027 146.994 237.232 145.121 233.581C144.997 233.338 144.823 233.124 144.612 232.951C144.401 232.779 144.156 232.653 143.893 232.58C143.63 232.507 143.355 232.49 143.085 232.529C142.815 232.568 142.557 232.663 142.325 232.807L138.342 235.299C137.907 235.571 137.595 236.003 137.474 236.502C137.352 237.001 137.431 237.528 137.692 237.97L138.383 239.13Z" fill="#FB9390"/>
<path d="M172.96 256.304C173.14 256.299 173.314 256.237 173.457 256.128C173.6 256.019 173.705 255.868 173.758 255.695C173.81 255.523 173.807 255.339 173.75 255.169C173.692 254.998 173.582 254.85 173.436 254.745C171.631 253.464 168.256 251.446 162.355 249.064C156.265 252.299 146.526 250.937 141.449 249.901C141.22 252.456 140.906 255.534 141.61 256.24C142.428 257.057 165.526 256.502 172.96 256.304Z" fill="#92D7F9"/>
<path d="M106.613 186.686C106.613 186.686 110.465 174.605 115.671 174.605C120.877 174.605 126.87 177.739 129.155 187.67C130.608 193.966 139.786 238.978 139.786 238.978L123.892 242.46L108.967 200.27L108.72 202.317L106.613 186.686Z" fill="#59BDF0"/>
<path d="M83.4989 156.691C83.4989 156.691 78.7142 153.881 70.6579 159.816C61.7721 166.35 40.3581 222.897 40.3581 222.897L68.0886 222.436C68.0886 222.436 98.7686 186.609 98.7686 181.857C98.7686 177.104 94.9521 166.683 94.9521 166.683L83.4989 156.691Z" fill="#FA7167"/>
<path d="M131.988 184.723C131.988 184.723 137.025 189.017 137.025 193.293C137.025 197.57 132.52 198.278 129.16 199.168C125.801 200.058 122.243 200.691 122.243 199.929C122.243 199.166 128.083 197.072 128.083 197.072C128.083 197.072 122.752 199.294 121.038 198.151C119.325 197.008 126.625 194.151 126.625 194.151C126.625 194.151 120.632 196.723 119.707 195.802C118.782 194.88 125.799 191.104 125.799 191.104C125.799 191.104 121.992 191.422 121.992 190.66V189.897C121.992 189.897 129.037 183.23 131.988 184.723Z" fill="#FB9390"/>
<path d="M17.6388 156.116L18.1444 183.309C18.1444 183.526 17.8598 183.706 17.4984 183.708C17.1369 183.71 16.8429 183.535 16.8392 183.318V183.309L17.3448 156.116C17.3448 156.067 17.4122 156.03 17.4927 156.03C17.5733 156.03 17.6369 156.069 17.6388 156.116Z" fill="#BED1F9"/>
<path d="M116.239 96.2729L116.744 126.298C116.744 126.516 116.46 126.694 116.098 126.697C115.737 126.701 115.443 126.525 115.439 126.308L115.945 96.2823C115.945 96.2336 116.012 96.1942 116.093 96.1961C116.173 96.198 116.228 96.2261 116.239 96.2729Z" fill="#BED1F9"/>
<path d="M58.6017 94.5346L59.1073 119.734C59.1073 119.952 58.8226 120.131 58.4631 120.133C58.1035 120.135 57.8058 119.961 57.802 119.744V119.734L58.3095 94.5346C58.3095 94.4859 58.3751 94.4465 58.4575 94.4465C58.5399 94.4465 58.5998 94.4859 58.6017 94.5346Z" fill="#BED1F9"/>
<path d="M57.9481 61.7386L58.4556 86.9402C58.4556 87.1575 58.1709 87.3355 57.8095 87.3373C57.4481 87.3392 57.1522 87.1669 57.1485 86.9496L57.656 61.748C57.656 61.6993 57.7234 61.6599 57.8039 61.6618C57.8844 61.6637 57.9462 61.6918 57.9481 61.7386Z" fill="#BED1F9"/>
<path d="M17.6388 58.4321L18.1444 83.6337C18.1444 83.851 17.8598 84.029 17.5002 84.0309C17.1407 84.0327 16.8429 83.8604 16.8392 83.6431V83.6337L17.3448 58.4321C17.3448 58.3834 17.4122 58.3459 17.4927 58.3459C17.5733 58.3459 17.6369 58.3853 17.6388 58.4321Z" fill="#BED1F9"/>
<path d="M29.7213 174.763L30.1988 218.326C30.1988 218.531 29.9273 218.701 29.5883 218.701C29.2494 218.701 28.9703 218.538 28.9685 218.326L29.446 174.763C29.446 174.718 29.5078 174.68 29.5846 174.68C29.6614 174.68 29.7213 174.718 29.7213 174.763Z" fill="#BED1F9"/>
<path d="M29.0715 136.103L29.579 159.332C29.579 159.549 29.2943 159.727 28.9329 159.731C28.5715 159.735 28.2775 159.559 28.2719 159.342V159.332L28.7793 136.103C28.7793 136.054 28.8468 136.015 28.9273 136.015C29.0078 136.015 29.0696 136.056 29.0715 136.103Z" fill="#BED1F9"/>
<path d="M137.179 127.087L137.687 145.112C137.687 145.329 137.406 145.509 137.044 145.511C136.683 145.513 136.387 145.342 136.379 145.125V145.112L136.887 127.087C136.887 127.038 136.954 126.999 137.037 127.001C137.119 127.003 137.179 127.04 137.179 127.087Z" fill="#BED1F9"/>
<path d="M116.239 71.2756L116.744 89.3005C116.744 89.5178 116.464 89.6958 116.104 89.6995C115.744 89.7033 115.445 89.5309 115.439 89.3136V89.3005L115.945 71.2756C115.945 71.2269 116.014 71.1875 116.095 71.1894C116.175 71.1913 116.228 71.2287 116.239 71.2756Z" fill="#BED1F9"/>
<path d="M147.351 76.8056L147.857 94.8306C147.857 95.0479 147.576 95.2258 147.215 95.2296C146.853 95.2333 146.557 95.061 146.552 94.8437V94.8306L147.057 76.8056C147.057 76.7569 147.127 76.7176 147.207 76.7194C147.288 76.7213 147.35 76.7663 147.351 76.8056Z" fill="#BED1F9"/>
<path d="M85.6 93.9163L86.1038 114.993C86.1038 115.208 85.821 115.386 85.4633 115.39C85.1056 115.394 84.8097 115.22 84.8041 115.004V114.993L85.3079 93.9163C85.3079 93.8676 85.3753 93.8283 85.4558 93.8301C85.5363 93.832 85.5981 93.8695 85.6 93.9163Z" fill="#BED1F9"/>
<path d="M72.2572 63.801L72.7609 84.8776C72.7609 85.093 72.4801 85.271 72.1205 85.2747C71.7609 85.2785 71.4669 85.1043 71.4613 84.8888V84.8776L71.9669 63.801C71.9669 63.7523 72.0325 63.7148 72.113 63.7148C72.1935 63.7148 72.2553 63.7542 72.2572 63.801Z" fill="#BED1F9"/>
<path d="M71.1392 92.1274L71.6448 121.39C71.6448 121.608 71.3602 121.786 70.9988 121.787C70.6373 121.789 70.3433 121.615 70.3396 121.398L70.8471 92.1274C70.8471 92.0786 70.9126 92.0393 70.9932 92.0393C71.0737 92.0393 71.1373 92.0786 71.1392 92.1274Z" fill="#BED1F9"/>
<path d="M100.061 102.845L100.568 120.68C100.568 120.898 100.287 121.077 99.926 121.081C99.5645 121.085 99.2687 120.913 99.2612 120.695V120.68L99.7687 102.845C99.7687 102.796 99.8361 102.758 99.9166 102.758C99.9971 102.758 100.061 102.8 100.061 102.845Z" fill="#BED1F9"/>
<path d="M46.5435 102.442L47.0473 121.091C47.0473 121.306 46.7664 121.484 46.4087 121.488C46.051 121.491 45.7551 121.319 45.7495 121.113C45.7486 121.111 45.7482 121.109 45.7482 121.106C45.7482 121.104 45.7486 121.102 45.7495 121.1L46.2533 102.451C46.2533 102.402 46.3207 102.365 46.4012 102.365C46.4817 102.365 46.5417 102.395 46.5435 102.442Z" fill="#BED1F9"/>
<path d="M137.179 78.8663L137.683 97.5132C137.683 97.7286 137.402 97.9066 137.044 97.9103C136.687 97.9141 136.389 97.7417 136.383 97.5356V97.5225L136.889 78.8756C136.889 78.8269 136.954 78.7876 137.035 78.7876C137.115 78.7876 137.177 78.8138 137.179 78.8663Z" fill="#BED1F9"/>
<path d="M44.8506 50.4125L45.3562 69.0594C45.3562 69.2767 45.0753 69.4547 44.7158 69.4584C44.3562 69.4622 44.0622 69.288 44.0566 69.0725V69.0594L44.5604 50.4125C44.5604 50.3638 44.6278 50.3245 44.7083 50.3264C44.7888 50.3282 44.8506 50.3657 44.8506 50.4125Z" fill="#BED1F9"/>
<path d="M156.614 193.258L157.119 227.406C157.119 227.622 156.833 227.8 156.475 227.802C156.117 227.803 155.823 227.629 155.82 227.414L156.323 193.265C156.323 193.217 156.389 193.177 156.469 193.177C156.55 193.177 156.614 193.209 156.614 193.258Z" fill="#BED1F9"/>
<path d="M137.179 107.153L137.687 121.096C137.687 121.313 137.407 121.493 137.048 121.497C136.688 121.501 136.389 121.33 136.379 121.122V121.106L136.887 107.153C136.887 107.104 136.956 107.065 137.037 107.067C137.117 107.069 137.177 107.104 137.179 107.153Z" fill="#BED1F9"/>
<path d="M34.0528 93.8284L34.5622 122.928C34.5622 123.146 34.2756 123.325 33.9123 123.327C33.549 123.329 33.2532 123.155 33.2494 122.936L33.7588 93.8358C33.7588 93.7871 33.8262 93.7478 33.9067 93.7478C33.9873 93.7478 34.0509 93.7815 34.0528 93.8284Z" fill="#BED1F9"/>
<path d="M30.9966 56.4839L31.5059 85.582C31.5059 85.8012 31.2194 85.9792 30.8561 85.981C30.4928 85.9829 30.197 85.8087 30.1932 85.5914L30.7026 56.4933C30.7026 56.4446 30.77 56.4053 30.8505 56.4053C30.931 56.4053 30.9947 56.4352 30.9966 56.4839Z" fill="#BED1F9"/>
<path d="M148.003 108.622L148.511 193.599C148.511 193.816 148.22 193.994 147.861 193.994C147.501 193.994 147.205 193.82 147.205 193.602L147.711 108.626C147.711 108.577 147.777 108.537 147.857 108.537C147.938 108.537 148.003 108.573 148.003 108.622Z" fill="#BED1F9"/>
<path d="M157.265 117.125L157.771 140.94C157.771 141.157 157.488 141.337 157.127 141.339C156.765 141.341 156.469 141.169 156.466 140.949L156.971 117.134C156.971 117.085 157.039 117.046 157.119 117.048C157.2 117.05 157.263 117.082 157.265 117.125Z" fill="#BED1F9"/>
<path d="M18.9403 208.051L19.4441 247.245C19.4441 247.46 19.1575 247.636 18.7999 247.638C18.4422 247.64 18.1482 247.466 18.1444 247.25L18.6482 208.057C18.6482 208.008 18.7156 207.971 18.7961 207.971C18.8766 207.971 18.9384 208.005 18.9403 208.051Z" fill="#BED1F9"/>
<path d="M16.9871 95.5386L17.4927 138.216C17.4927 138.434 17.2062 138.612 16.8448 138.613C16.4834 138.615 16.1894 138.439 16.1875 138.222L16.6931 95.5386C16.6931 95.4899 16.7586 95.4506 16.8392 95.4506C16.9197 95.4506 16.9871 95.4955 16.9871 95.5386Z" fill="#BED1F9"/>
<path d="M157.917 161.983L158.425 168.553C158.441 168.77 158.162 168.955 157.801 168.965C157.439 168.974 157.136 168.807 157.119 168.59C157.117 168.578 157.117 168.565 157.119 168.553L157.625 161.983C157.625 161.934 157.698 161.895 157.778 161.899C157.859 161.902 157.913 161.938 157.917 161.983Z" fill="#BED1F9"/>
<path d="M99.4072 84.3906L99.9147 90.9603C99.9316 91.1776 99.6525 91.363 99.2911 91.3724C98.9297 91.3818 98.6263 91.215 98.6095 90.9977C98.6076 90.9853 98.6076 90.9727 98.6095 90.9603L99.1151 84.3906C99.1151 84.3419 99.1881 84.3025 99.2687 84.3063C99.3492 84.31 99.4035 84.3456 99.4072 84.3906Z" fill="#BED1F9"/>
<path d="M42.6259 8.78394C46.0133 8.78547 49.302 9.9254 51.9641 12.0208C54.6262 14.1161 56.5074 17.0454 57.3058 20.3385C59.4124 16.8775 62.5928 14.2007 66.362 12.7165C70.1312 11.2323 74.2823 11.022 78.182 12.1179C82.0818 13.2137 85.5163 15.5554 87.9615 18.7859C90.4068 22.0164 91.7287 25.9583 91.7255 30.0104C91.7255 30.5593 91.6899 31.0988 91.645 31.6345C92.1375 31.5858 92.6375 31.5596 93.1431 31.5596C97.1537 31.5596 101 33.1533 103.836 35.9902C106.672 38.827 108.265 42.6746 108.265 46.6866C108.265 50.6985 106.672 54.5461 103.836 57.3829C101 60.2198 97.1537 61.8135 93.1431 61.8135H24.7344C22.5077 61.8161 20.3079 61.3268 18.2922 60.3804C16.2764 59.4341 14.4945 58.0542 13.0736 56.3391C11.6528 54.6241 10.628 52.6164 10.0727 50.4593C9.51735 48.3023 9.44506 46.0491 9.861 43.8609C10.2769 41.6727 11.1708 39.6033 12.4788 37.8007C13.7868 35.9981 15.4767 34.5066 17.4276 33.433C19.3785 32.3593 21.5424 31.7298 23.7647 31.5896C25.987 31.4494 28.2128 31.8018 30.2831 32.6218C28.6841 30.3589 27.7378 27.6999 27.5477 24.9353C27.3575 22.1708 27.9308 19.4072 29.2048 16.9466C30.4789 14.486 32.4047 12.4231 34.7717 10.9835C37.1387 9.54391 39.8558 8.78299 42.6259 8.78394Z" fill="#59BDF0"/>
<path d="M93.5795 23.8117C96.9669 23.8132 100.256 24.9531 102.918 27.0485C105.58 29.1438 107.461 32.0731 108.259 35.3662C110.366 31.9052 113.546 29.2284 117.316 27.7442C121.085 26.26 125.236 26.0498 129.136 27.1456C133.035 28.2414 136.47 30.5832 138.915 33.8136C141.36 37.0441 142.682 40.986 142.679 45.0381C142.679 45.587 142.644 46.1265 142.597 46.6622C143.091 46.6135 143.591 46.5873 144.095 46.5873C148.105 46.5873 151.952 48.181 154.788 51.0179C157.623 53.8547 159.217 57.7024 159.217 61.7143C159.217 65.7262 157.623 69.5738 154.788 72.4106C151.952 75.2475 148.105 76.8412 144.095 76.8412H75.6879C73.4609 76.8449 71.2606 76.3565 69.2442 75.4109C67.2277 74.4654 65.445 73.0859 64.0233 71.3712C62.6016 69.6564 61.5761 67.6488 61.02 65.4916C60.4639 63.3344 60.391 61.081 60.8064 58.8923C61.2219 56.7037 62.1154 54.6338 63.4233 52.8307C64.7311 51.0276 66.421 49.5357 68.372 48.4616C70.3231 47.3875 72.4873 46.7578 74.7098 46.6174C76.9324 46.477 79.1586 46.8294 81.2292 47.6495C79.6298 45.3861 78.6835 42.7264 78.4936 39.9612C78.3037 37.196 78.8777 34.4318 80.1526 31.9709C81.4276 29.5101 83.3545 27.4473 85.7225 26.0083C88.0906 24.5692 90.8087 23.8093 93.5795 23.8117Z" fill="#2B7AE8"/>
<path d="M63.068 30.7841L49.3656 45.1467L58.6822 52.6399L44.7064 74.4958L65.8077 54.2004L56.2159 44.8339L72.1111 31.7207L63.068 30.7841Z" fill="#BED1F9"/>
<path d="M155.331 0L133.349 20.2298L148.297 30.784L125.876 61.5681L159.728 32.9833L144.34 19.7896L169.838 1.31881L155.331 0Z" fill="#BED1F9"/>
<path d="M184.816 77.3282C184.816 77.3282 180.509 68.2333 170.101 70.2809C159.692 72.3284 153.857 79.55 156.078 83.8548C158.299 88.1597 190.23 91.4923 184.816 77.3282Z" fill="#2B7AE8"/>
<path d="M16.0939 13.5197C12.6069 13.6958 5.21737 15.393 6.64435 23.8116C8.07132 32.2303 22.4834 27.3709 22.4834 20.672C22.4834 13.973 18.4853 13.3979 16.0939 13.5197Z" fill="#2B7AE8"/>
<path d="M58.1859 228.557C61.7253 215.642 96.027 173.631 108.314 173.631C120.6 173.631 150.277 234.383 150.277 234.383L134.921 243.522C134.921 243.522 120.806 221.108 116.405 213.433C114.557 210.211 110.027 200.019 110.027 200.019L94.8267 233.139L91.9109 238.139C88.9951 243.138 81.0138 256.887 65.1878 259.386C49.3619 261.885 58.1859 228.557 58.1859 228.557Z" fill="#7CCBF2"/>
<path d="M80.4707 195.118C80.4707 195.118 98.8229 212.86 101.19 212.86C103.557 212.86 138.784 217.221 140.902 217.905L142.84 221.016L144.703 223.486C144.703 223.486 147.003 220.503 145.129 215.192C143.254 209.882 139.557 207.886 138.803 207.886C138.048 207.886 107.587 197.244 107.587 197.244L90.5008 180.132L80.4707 195.118Z" fill="#FB9390"/>
<path d="M83.4989 156.691L103.698 154.818L106.613 164.233L94.9521 168.972C94.9521 168.972 85.0944 166.758 83.4989 156.691Z" fill="#FB9390"/>
<path d="M103.692 154.816L97.5683 155.378C96.0745 156.891 94.8868 158.678 94.0701 160.642C92.6918 163.961 93.072 166.715 94.5008 168.854C94.7855 168.939 94.9465 168.974 94.9465 168.974L106.613 164.233L103.692 154.816Z" fill="#EF7F7F"/>
<path d="M125.69 152.935C124.134 151.206 122.465 150.102 117.052 149.484C111.396 148.84 100.087 151.483 96.1581 160.943C91.645 171.808 105.988 176.625 114.211 173.599C122.434 170.574 134.752 163.004 125.69 152.935Z" fill="#FB9390"/>
<path d="M107.883 153.798C105.963 155.044 103.711 154.922 102.851 153.523C101.992 152.124 102.851 149.981 104.767 148.733C106.683 147.485 108.937 147.609 109.799 149.01C110.66 150.412 109.801 152.549 107.883 153.798Z" fill="#FB9390"/>
<path d="M74.5774 163.225C69.613 166.597 69.2085 171.481 72.3302 180.855C75.452 190.229 86.8378 203.351 86.8378 203.351L101.623 189.358C101.623 189.358 88.4277 153.836 74.5774 163.225Z" fill="#E8605D"/>
<path d="M128.327 157.066C128.327 157.066 117.125 160.387 110.132 150.035C103.139 139.683 93.9783 151.264 93.9783 151.264C93.9783 151.264 95.9222 140.101 108.973 140.657C122.023 141.214 131.997 151.95 128.327 157.066Z" fill="#2B7AE8"/>
<path d="M213.936 256.137H2.06378C1.55187 256.138 1.06107 256.341 0.699101 256.703C0.337127 257.066 0.133552 257.556 0.133057 258.069C0.133057 258.581 0.336472 259.072 0.698553 259.434C1.06063 259.796 1.55172 260 2.06378 260H213.936C214.19 260 214.441 259.95 214.675 259.853C214.91 259.756 215.123 259.614 215.302 259.435C215.481 259.255 215.624 259.042 215.72 258.808C215.817 258.574 215.867 258.322 215.867 258.069C215.867 257.556 215.663 257.065 215.301 256.703C214.939 256.341 214.448 256.137 213.936 256.137Z" fill="#59BDF0"/>
</g>
<defs>
<clipPath id="clip0_3969_310533">
<rect width="215.734" height="260" fill="white" transform="translate(0.133057)"/>
</clipPath>
</defs>
</svg>
