<svg width="30" height="30" viewBox="0 0 30 30" fill="white" xmlns="http://www.w3.org/2000/svg">
<circle cx="14.5" cy="14.5" r="14" stroke="#DBDEE5" stroke-dasharray="2 2"/>
<path d="M19.3334 10.6011C19.2851 10.5931 19.2287 10.5931 19.1804 10.6011C18.0687 10.5608 17.1826 9.65057 17.1826 8.52279C17.1826 7.37085 18.109 6.44446 19.2609 6.44446C20.4129 6.44446 21.3393 7.3789 21.3393 8.52279C21.3312 9.65057 20.4451 10.5608 19.3334 10.6011Z" stroke="#848484" stroke-opacity="0.6" stroke-linecap="round" stroke-linejoin="round"/>
<path d="M18.5037 16.4657C19.6073 16.651 20.8237 16.4576 21.6776 15.8857C22.8134 15.1285 22.8134 13.8879 21.6776 13.1307C20.8156 12.5587 19.5831 12.3654 18.4795 12.5587" stroke="#848484" stroke-opacity="0.6" stroke-linecap="round" stroke-linejoin="round"/>
<path d="M9.64304 10.6011C9.69137 10.5931 9.74776 10.5931 9.7961 10.6011C10.9078 10.5608 11.7939 9.65057 11.7939 8.52279C11.7939 7.37085 10.8675 6.44446 9.71554 6.44446C8.5636 6.44446 7.63721 7.3789 7.63721 8.52279C7.64526 9.65057 8.53138 10.5608 9.64304 10.6011Z" stroke="#848484" stroke-opacity="0.6" stroke-linecap="round" stroke-linejoin="round"/>
<path d="M10.4725 16.4657C9.36893 16.651 8.15254 16.4576 7.29865 15.8857C6.16282 15.1285 6.16282 13.8879 7.29865 13.1307C8.1606 12.5587 9.39309 12.3654 10.4967 12.5587" stroke="#848484" stroke-opacity="0.6" stroke-linecap="round" stroke-linejoin="round"/>
<path d="M14.5 16.6188C14.4516 16.6107 14.3952 16.6107 14.3469 16.6188C13.2352 16.5785 12.3491 15.6682 12.3491 14.5405C12.3491 13.3885 13.2755 12.4621 14.4275 12.4621C15.5794 12.4621 16.5058 13.3966 16.5058 14.5405C16.4977 15.6682 15.6116 16.5866 14.5 16.6188Z" stroke="#848484" stroke-opacity="0.6" stroke-linecap="round" stroke-linejoin="round"/>
<path d="M12.1561 19.1564C11.0202 19.9136 11.0202 21.1542 12.1561 21.9114C13.445 22.7734 15.5555 22.7734 16.8444 21.9114C17.9802 21.1542 17.9802 19.9136 16.8444 19.1564C15.5636 18.3025 13.445 18.3025 12.1561 19.1564Z" stroke="#848484" stroke-opacity="0.6" stroke-linecap="round" stroke-linejoin="round"/>
<circle cx="24.1666" cy="24.1667" r="5.33333" fill="#848484" stroke="white"/>
<path d="M21.75 24.5547V23.7676H23.7701V21.75H24.5633V23.7676H26.5833V24.5547H24.5633V26.5833H23.7701V24.5547H21.75Z" fill="white"/>
</svg>
