<svg width="18" height="18" viewBox="0 0 18 18" fill="none" xmlns="http://www.w3.org/2000/svg">
<path d="M9 1.5L4.5 6L6 7.5L9 4.5L12 7.5L13.5 6L9 1.5Z" stroke="#AF52DE" stroke-width="1.5" stroke-miterlimit="10" stroke-linecap="round" stroke-linejoin="round"/>
<path d="M9 16.5L4.5 12L6 10.5L9 13.5L12 10.5L13.5 12L9 16.5Z" stroke="#AF52DE" stroke-width="1.5" stroke-miterlimit="10" stroke-linecap="round" stroke-linejoin="round"/>
<path opacity="0.4" d="M14.8114 7.3143L13.125 9.00073L14.8114 10.6872L16.4979 9.00074L14.8114 7.3143Z" stroke="#AF52DE" stroke-width="1.5" stroke-miterlimit="10" stroke-linecap="round" stroke-linejoin="round"/>
<path opacity="0.4" d="M3.18643 7.3143L1.5 9.00073L3.18643 10.6872L4.87286 9.00074L3.18643 7.3143Z" stroke="#AF52DE" stroke-width="1.5" stroke-miterlimit="10" stroke-linecap="round" stroke-linejoin="round"/>
<path opacity="0.4" d="M8.99945 7.1446L7.14331 9.00073L8.99945 10.8569L10.8556 9.00073L8.99945 7.1446Z" stroke="#AF52DE" stroke-width="1.5" stroke-miterlimit="10" stroke-linecap="round" stroke-linejoin="round"/>
</svg>
