<svg width="18" height="19" viewBox="0 0 18 19" fill="none" xmlns="http://www.w3.org/2000/svg">
<path opacity="0.6" d="M7.58249 3.5C7.52249 3.725 7.5 3.9725 7.5 4.25V6.5H3.75V5C3.75 4.175 4.425 3.5 5.25 3.5H7.58249Z" fill="#2B7AE8"/>
<path d="M7.5 14.75V6.5H3.75C2.25 6.5 1.5 7.25 1.5 8.75V14.75C1.5 16.25 2.25 17 3.75 17H9.75C8.25 17 7.5 16.25 7.5 14.75ZM5.0625 13.25C5.0625 13.5575 4.8075 13.8125 4.5 13.8125C4.1925 13.8125 3.9375 13.5575 3.9375 13.25V10.25C3.9375 9.9425 4.1925 9.6875 4.5 9.6875C4.8075 9.6875 5.0625 9.9425 5.0625 10.25V13.25Z" fill="#2B7AE8"/>
<path opacity="0.4" d="M10.5 17H9.75C8.25 17 7.5 16.25 7.5 14.75V4.25C7.5 2.75 8.25 2 9.75 2H14.25C15.75 2 16.5 2.75 16.5 4.25V14.75C16.5 16.25 15.75 17 14.25 17H13.5" fill="#2B7AE8"/>
<path d="M13.5 14V17H10.5V14C10.5 13.5875 10.8375 13.25 11.25 13.25H12.75C13.1625 13.25 13.5 13.5875 13.5 14Z" fill="#2B7AE8"/>
<path d="M10.5 10.8125C10.1925 10.8125 9.9375 10.5575 9.9375 10.25V6.5C9.9375 6.1925 10.1925 5.9375 10.5 5.9375C10.8075 5.9375 11.0625 6.1925 11.0625 6.5V10.25C11.0625 10.5575 10.8075 10.8125 10.5 10.8125Z" fill="#2B7AE8"/>
<path d="M13.5 10.8125C13.1925 10.8125 12.9375 10.5575 12.9375 10.25V6.5C12.9375 6.1925 13.1925 5.9375 13.5 5.9375C13.8075 5.9375 14.0625 6.1925 14.0625 6.5V10.25C14.0625 10.5575 13.8075 10.8125 13.5 10.8125Z" fill="#2B7AE8"/>
</svg>
