<svg width="16" height="17" viewBox="0 0 16 17" fill="none" xmlns="http://www.w3.org/2000/svg">
<path d="M8.33299 15.1668H2.71965C1.94632 15.1668 1.31299 14.5468 1.31299 13.7868V3.89348C1.31299 2.14682 2.61299 1.35348 4.20632 2.13348L7.16632 3.58682C7.80632 3.90015 8.33299 4.73348 8.33299 5.44015V15.1668Z" stroke="current" stroke-linecap="round" stroke-linejoin="round"/>
<path d="M14.6468 10.5401V13.0601C14.6468 14.5001 13.9802 15.1668 12.5402 15.1668H8.3335V7.44678L8.64683 7.51344L11.6468 8.18678L13.0002 8.48678C13.8802 8.68011 14.6002 9.13344 14.6402 10.4134C14.6468 10.4534 14.6468 10.4934 14.6468 10.5401Z" stroke="current" stroke-linecap="round" stroke-linejoin="round"/>
<path d="M3.6665 6.5H5.97984" stroke="current" stroke-linecap="round" stroke-linejoin="round"/>
<path d="M3.6665 9.16675H5.97984" stroke="current" stroke-linecap="round" stroke-linejoin="round"/>
<path d="M11.6465 8.18676V10.3334C11.6465 11.1601 10.9732 11.8334 10.1465 11.8334C9.31982 11.8334 8.64648 11.1601 8.64648 10.3334V7.51343L11.6465 8.18676Z" stroke="current" stroke-linecap="round" stroke-linejoin="round"/>
<path d="M14.6398 10.4134C14.5998 11.2001 13.9465 11.8334 13.1465 11.8334C12.3198 11.8334 11.6465 11.1601 11.6465 10.3334V8.18677L12.9998 8.48677C13.8798 8.6801 14.5998 9.13343 14.6398 10.4134Z" stroke="current" stroke-linecap="round" stroke-linejoin="round"/>
</svg>
