<svg width="20" height="20" viewBox="0 0 20 20" fill="none" xmlns="http://www.w3.org/2000/svg">
<path opacity="0.4" d="M9.99996 18.3334C14.6023 18.3334 18.3333 14.6025 18.3333 10.0001C18.3333 5.39771 14.6023 1.66675 9.99996 1.66675C5.39759 1.66675 1.66663 5.39771 1.66663 10.0001C1.66663 14.6025 5.39759 18.3334 9.99996 18.3334Z" fill="#848484"/>
<path d="M10.8828 10.0003L12.7994 8.08363C13.0411 7.84196 13.0411 7.44196 12.7994 7.20029C12.5578 6.95863 12.1578 6.95863 11.9161 7.20029L9.99944 9.11696L8.08277 7.20029C7.8411 6.95863 7.44111 6.95863 7.19944 7.20029C6.95777 7.44196 6.95777 7.84196 7.19944 8.08363L9.1161 10.0003L7.19944 11.917C6.95777 12.1586 6.95777 12.5586 7.19944 12.8003C7.32444 12.9253 7.48277 12.9836 7.6411 12.9836C7.79944 12.9836 7.95777 12.9253 8.08277 12.8003L9.99944 10.8836L11.9161 12.8003C12.0411 12.9253 12.1994 12.9836 12.3578 12.9836C12.5161 12.9836 12.6744 12.9253 12.7994 12.8003C13.0411 12.5586 13.0411 12.1586 12.7994 11.917L10.8828 10.0003Z" fill="#848484"/>
</svg>
