<svg width="20" height="21" viewBox="0 0 20 21" fill="none" xmlns="http://www.w3.org/2000/svg">
<path d="M13.3333 11.2501V14.7501C13.3333 17.6667 12.1667 18.8334 9.25001 18.8334H5.75001C2.83334 18.8334 1.66667 17.6667 1.66667 14.7501V11.2501C1.66667 8.33341 2.83334 7.16675 5.75001 7.16675H9.25001C12.1667 7.16675 13.3333 8.33341 13.3333 11.2501Z" stroke="#292D32" stroke-width="1.5" stroke-linecap="round" stroke-linejoin="round"/>
<path d="M18.3333 6.25008V9.75008C18.3333 12.6667 17.1667 13.8334 14.25 13.8334H13.3333V11.2501C13.3333 8.33341 12.1667 7.16675 9.25001 7.16675H6.66667V6.25008C6.66667 3.33341 7.83334 2.16675 10.75 2.16675H14.25C17.1667 2.16675 18.3333 3.33341 18.3333 6.25008Z" stroke="#292D32" stroke-width="1.5" stroke-linecap="round" stroke-linejoin="round"/>
</svg>
