<svg width="14" height="14" viewBox="0 0 14 14" fill="none" xmlns="http://www.w3.org/2000/svg">
<path d="M11.9062 11.5312V3.46875H2.09375V11.5312H0.90625V13.25H13.0938V11.5312H11.9062ZM5.4975 6.81063L5.71406 6.0025L5.90094 5.30562L6.07656 4.65094H7.74594L7.11719 6.81063H8.74156L8.05781 7.70219L6.12344 10.2241L6.85781 7.70219H5.25844L5.4975 6.81063Z" fill="#8B75FF"/>
<path d="M3.53125 1.0625H4.78125C4.82269 1.0625 4.86243 1.04604 4.89174 1.01674C4.92104 0.987433 4.9375 0.94769 4.9375 0.90625C4.9375 0.86481 4.92104 0.825067 4.89174 0.795765C4.86243 0.766462 4.82269 0.75 4.78125 0.75H3.53125C3.48981 0.75 3.45007 0.766462 3.42076 0.795765C3.39146 0.825067 3.375 0.86481 3.375 0.90625C3.375 0.94769 3.39146 0.987433 3.42076 1.01674C3.45007 1.04604 3.48981 1.0625 3.53125 1.0625Z" fill="#8B75FF"/>
<path d="M3.53125 1.46875H4.78125C4.82269 1.46875 4.86243 1.45229 4.89174 1.42299C4.92104 1.39368 4.9375 1.35394 4.9375 1.3125C4.9375 1.27106 4.92104 1.23132 4.89174 1.20201C4.86243 1.17271 4.82269 1.15625 4.78125 1.15625H3.53125C3.48981 1.15625 3.45007 1.17271 3.42076 1.20201C3.39146 1.23132 3.375 1.27106 3.375 1.3125C3.375 1.35394 3.39146 1.39368 3.42076 1.42299C3.45007 1.45229 3.48981 1.46875 3.53125 1.46875Z" fill="#8B75FF"/>
<path d="M3.53125 1.875H4.78125C4.82269 1.875 4.86243 1.85854 4.89174 1.82924C4.92104 1.79993 4.9375 1.76019 4.9375 1.71875C4.9375 1.67731 4.92104 1.63757 4.89174 1.60826C4.86243 1.57896 4.82269 1.5625 4.78125 1.5625H3.53125C3.48981 1.5625 3.45007 1.57896 3.42076 1.60826C3.39146 1.63757 3.375 1.67731 3.375 1.71875C3.375 1.76019 3.39146 1.79993 3.42076 1.82924C3.45007 1.85854 3.48981 1.875 3.53125 1.875Z" fill="#8B75FF"/>
<path d="M3.53125 2.28125H4.78125C4.82269 2.28125 4.86243 2.26479 4.89174 2.23549C4.92104 2.20618 4.9375 2.16644 4.9375 2.125C4.9375 2.08356 4.92104 2.04382 4.89174 2.01451C4.86243 1.98521 4.82269 1.96875 4.78125 1.96875H3.53125C3.48981 1.96875 3.45007 1.98521 3.42076 2.01451C3.39146 2.04382 3.375 2.08356 3.375 2.125C3.375 2.16644 3.39146 2.20618 3.42076 2.23549C3.45007 2.26479 3.48981 2.28125 3.53125 2.28125Z" fill="#8B75FF"/>
<path d="M3.53125 2.6875H4.78125C4.82269 2.6875 4.86243 2.67104 4.89174 2.64174C4.92104 2.61243 4.9375 2.57269 4.9375 2.53125C4.9375 2.48981 4.92104 2.45007 4.89174 2.42076C4.86243 2.39146 4.82269 2.375 4.78125 2.375H3.53125C3.48981 2.375 3.45007 2.39146 3.42076 2.42076C3.39146 2.45007 3.375 2.48981 3.375 2.53125C3.375 2.57269 3.39146 2.61243 3.42076 2.64174C3.45007 2.67104 3.48981 2.6875 3.53125 2.6875Z" fill="#8B75FF"/>
<path d="M3.53125 3.09375H4.78125C4.82269 3.09375 4.86243 3.07729 4.89174 3.04799C4.92104 3.01868 4.9375 2.97894 4.9375 2.9375C4.9375 2.89606 4.92104 2.85632 4.89174 2.82701C4.86243 2.79771 4.82269 2.78125 4.78125 2.78125H3.53125C3.48981 2.78125 3.45007 2.79771 3.42076 2.82701C3.39146 2.85632 3.375 2.89606 3.375 2.9375C3.375 2.97894 3.39146 3.01868 3.42076 3.04799C3.45007 3.07729 3.48981 3.09375 3.53125 3.09375Z" fill="#8B75FF"/>
<path d="M9.21875 1.0625H10.4688C10.5102 1.0625 10.5499 1.04604 10.5792 1.01674C10.6085 0.987433 10.625 0.94769 10.625 0.90625C10.625 0.86481 10.6085 0.825067 10.5792 0.795765C10.5499 0.766462 10.5102 0.75 10.4688 0.75H9.21875C9.17731 0.75 9.13757 0.766462 9.10826 0.795765C9.07896 0.825067 9.0625 0.86481 9.0625 0.90625C9.0625 0.94769 9.07896 0.987433 9.10826 1.01674C9.13757 1.04604 9.17731 1.0625 9.21875 1.0625Z" fill="#8B75FF"/>
<path d="M9.21875 1.46875H10.4688C10.5102 1.46875 10.5499 1.45229 10.5792 1.42299C10.6085 1.39368 10.625 1.35394 10.625 1.3125C10.625 1.27106 10.6085 1.23132 10.5792 1.20201C10.5499 1.17271 10.5102 1.15625 10.4688 1.15625H9.21875C9.17731 1.15625 9.13757 1.17271 9.10826 1.20201C9.07896 1.23132 9.0625 1.27106 9.0625 1.3125C9.0625 1.35394 9.07896 1.39368 9.10826 1.42299C9.13757 1.45229 9.17731 1.46875 9.21875 1.46875Z" fill="#8B75FF"/>
<path d="M9.21875 1.875H10.4688C10.5102 1.875 10.5499 1.85854 10.5792 1.82924C10.6085 1.79993 10.625 1.76019 10.625 1.71875C10.625 1.67731 10.6085 1.63757 10.5792 1.60826C10.5499 1.57896 10.5102 1.5625 10.4688 1.5625H9.21875C9.17731 1.5625 9.13757 1.57896 9.10826 1.60826C9.07896 1.63757 9.0625 1.67731 9.0625 1.71875C9.0625 1.76019 9.07896 1.79993 9.10826 1.82924C9.13757 1.85854 9.17731 1.875 9.21875 1.875Z" fill="#8B75FF"/>
<path d="M9.21875 2.28125H10.4688C10.5102 2.28125 10.5499 2.26479 10.5792 2.23549C10.6085 2.20618 10.625 2.16644 10.625 2.125C10.625 2.08356 10.6085 2.04382 10.5792 2.01451C10.5499 1.98521 10.5102 1.96875 10.4688 1.96875H9.21875C9.17731 1.96875 9.13757 1.98521 9.10826 2.01451C9.07896 2.04382 9.0625 2.08356 9.0625 2.125C9.0625 2.16644 9.07896 2.20618 9.10826 2.23549C9.13757 2.26479 9.17731 2.28125 9.21875 2.28125Z" fill="#8B75FF"/>
<path d="M9.21875 2.6875H10.4688C10.5102 2.6875 10.5499 2.67104 10.5792 2.64174C10.6085 2.61243 10.625 2.57269 10.625 2.53125C10.625 2.48981 10.6085 2.45007 10.5792 2.42076C10.5499 2.39146 10.5102 2.375 10.4688 2.375H9.21875C9.17731 2.375 9.13757 2.39146 9.10826 2.42076C9.07896 2.45007 9.0625 2.48981 9.0625 2.53125C9.0625 2.57269 9.07896 2.61243 9.10826 2.64174C9.13757 2.67104 9.17731 2.6875 9.21875 2.6875Z" fill="#8B75FF"/>
<path d="M9.21875 3.09375H10.4688C10.5102 3.09375 10.5499 3.07729 10.5792 3.04799C10.6085 3.01868 10.625 2.97894 10.625 2.9375C10.625 2.89606 10.6085 2.85632 10.5792 2.82701C10.5499 2.79771 10.5102 2.78125 10.4688 2.78125H9.21875C9.17731 2.78125 9.13757 2.79771 9.10826 2.82701C9.07896 2.85632 9.0625 2.89606 9.0625 2.9375C9.0625 2.97894 9.07896 3.01868 9.10826 3.04799C9.13757 3.07729 9.17731 3.09375 9.21875 3.09375Z" fill="#8B75FF"/>
</svg>
