<svg width="18" height="19" viewBox="0 0 18 19" fill="none" xmlns="http://www.w3.org/2000/svg">
<path d="M9 2L4.5 6.5L6 8L9 5L12 8L13.5 6.5L9 2Z" stroke="#AF52DE" stroke-width="1.5" stroke-miterlimit="10" stroke-linecap="round" stroke-linejoin="round"/>
<path d="M9 17L4.5 12.5L6 11L9 14L12 11L13.5 12.5L9 17Z" stroke="#AF52DE" stroke-width="1.5" stroke-miterlimit="10" stroke-linecap="round" stroke-linejoin="round"/>
<path opacity="0.4" d="M14.8114 7.8143L13.125 9.50073L14.8114 11.1872L16.4979 9.50074L14.8114 7.8143Z" stroke="#AF52DE" stroke-width="1.5" stroke-miterlimit="10" stroke-linecap="round" stroke-linejoin="round"/>
<path opacity="0.4" d="M3.18643 7.8143L1.5 9.50073L3.18643 11.1872L4.87286 9.50074L3.18643 7.8143Z" stroke="#AF52DE" stroke-width="1.5" stroke-miterlimit="10" stroke-linecap="round" stroke-linejoin="round"/>
<path opacity="0.4" d="M8.99945 7.6446L7.14331 9.50073L8.99945 11.3569L10.8556 9.50073L8.99945 7.6446Z" stroke="#AF52DE" stroke-width="1.5" stroke-miterlimit="10" stroke-linecap="round" stroke-linejoin="round"/>
</svg>
