<svg width="14" height="15" viewBox="0 0 14 15" fill="none" xmlns="http://www.w3.org/2000/svg">
<rect y="0.5" width="14" height="14" rx="7" fill="#828282"/>
<path d="M7 1.6665L3.5 5.1665L4.66667 6.33317L7 3.99984L9.33333 6.33317L10.5 5.1665L7 1.6665Z" stroke="#212426" stroke-miterlimit="10" stroke-linecap="round" stroke-linejoin="round"/>
<path d="M7 13.3332L3.5 9.83317L4.66667 8.6665L7 10.9998L9.33333 8.6665L10.5 9.83317L7 13.3332Z" stroke="#212426" stroke-miterlimit="10" stroke-linecap="round" stroke-linejoin="round"/>
<path d="M11.5416 6.15957L10.2217 7.47949L11.5416 8.79941L12.8615 7.47949L11.5416 6.15957Z" stroke="#212426" stroke-miterlimit="10" stroke-linecap="round" stroke-linejoin="round"/>
<path d="M2.49961 6.15957L1.17969 7.47949L2.49961 8.79941L3.81953 7.47949L2.49961 6.15957Z" stroke="#212426" stroke-miterlimit="10" stroke-linecap="round" stroke-linejoin="round"/>
<path d="M6.95831 6.05634L5.51465 7.5L6.95831 8.94366L8.40197 7.5L6.95831 6.05634Z" stroke="#212426" stroke-miterlimit="10" stroke-linecap="round" stroke-linejoin="round"/>
</svg>
