<svg width="160" height="160" viewBox="0 0 160 160" fill="none" xmlns="http://www.w3.org/2000/svg">
<mask id="mask0_5462_25148" style="mask-type:luminance" maskUnits="userSpaceOnUse" x="0" y="0" width="160" height="160">
<path d="M0 0H160V160H0V0Z" fill="white"/>
</mask>
<g mask="url(#mask0_5462_25148)">
<path fill-rule="evenodd" clip-rule="evenodd" d="M157.635 150.323C158.941 150.323 159.999 149.273 159.999 147.978V60.1171C159.999 56.8453 157.324 54.1937 154.025 54.1937H139.138C137.832 54.1937 136.773 55.2434 136.773 56.5383C136.773 57.8332 137.832 58.8829 139.138 58.8829H154.025C154.713 58.8829 155.27 59.4356 155.27 60.1171V147.978C155.27 149.273 156.329 150.323 157.635 150.323Z" fill="#848484"/>
<path fill-rule="evenodd" clip-rule="evenodd" d="M35.8063 102.581C37.0534 102.581 38.0643 101.544 38.0643 100.266V79.0891C38.0643 77.8106 37.0534 76.7741 35.8063 76.7741C34.5592 76.7741 33.5482 77.8106 33.5482 79.0891V100.266C33.5482 101.544 34.5592 102.581 35.8063 102.581Z" fill="#848484"/>
<path fill-rule="evenodd" clip-rule="evenodd" d="M94.1549 54.1607C95.0662 53.2565 95.0662 51.7905 94.1549 50.8863L86.8608 43.6489C85.7551 42.5518 84.2555 41.9356 82.6919 41.9356H73.3009C72.0121 41.9356 70.9674 42.9723 70.9674 44.251C70.9674 45.5297 72.0121 46.5663 73.3009 46.5663H82.6919C83.0181 46.5663 83.3306 46.6948 83.5608 46.9233L90.8549 54.1607C91.7662 55.0649 93.2436 55.0649 94.1549 54.1607Z" fill="#848484"/>
<path fill-rule="evenodd" clip-rule="evenodd" d="M107.098 56.4514C107.098 57.6985 108.143 58.7095 109.431 58.7095H127.346C128.635 58.7095 129.679 57.6985 129.679 56.4514C129.679 55.2043 128.635 54.1933 127.346 54.1933H109.431C108.143 54.1933 107.098 55.2043 107.098 56.4514Z" fill="#848484"/>
<path fill-rule="evenodd" clip-rule="evenodd" d="M36.7211 145.171C36.956 145.46 37.3076 145.627 37.6787 145.627L36.7211 145.171ZM36.7208 145.17L4.97518 106.067C4.97517 106.067 4.97519 106.067 4.97518 106.067C4.31969 105.259 4.89308 104.051 5.93275 104.051H79.5082C80.8026 104.051 81.8519 103 81.8519 101.703C81.8519 100.406 80.8026 99.355 79.5082 99.355H5.93275C0.945726 99.355 -1.80825 105.153 1.3386 109.03L33.085 148.134C34.2094 149.519 35.8963 150.323 37.6787 150.323H157.656C158.561 150.323 159.384 149.802 159.773 148.983C160.161 148.165 160.045 147.196 159.475 146.493L122.983 101.544C121.859 100.159 120.171 99.355 118.389 99.355H91.0785C89.7841 99.355 88.7348 100.406 88.7348 101.703C88.7348 103 89.7841 104.051 91.0785 104.051H118.389C118.76 104.051 119.112 104.218 119.347 104.507L152.729 145.627H37.6787" fill="#848484"/>
<path fill-rule="evenodd" clip-rule="evenodd" d="M94.6399 137.239C95.6669 138.572 97.2649 139.355 98.961 139.355H130.308C133.517 139.355 135.338 135.723 133.395 133.199L125.361 122.763C124.334 121.429 122.735 120.646 121.04 120.646H89.6927C86.4838 120.646 84.6626 124.279 86.6063 126.803C86.6064 126.803 86.6064 126.803 86.6065 126.803L94.6399 137.239ZM98.3436 134.451C98.3435 134.451 98.3434 134.451 98.3433 134.451L91.258 125.247H121.04C121.282 125.247 121.51 125.359 121.657 125.55L128.743 134.754H98.961C98.7191 134.754 98.4908 134.642 98.3436 134.451Z" fill="#848484"/>
<path fill-rule="evenodd" clip-rule="evenodd" d="M63.2266 137.096C63.2266 138.344 64.2584 139.354 65.5312 139.354H79.6316C80.9044 139.354 81.9362 138.344 81.9362 137.096C81.9362 135.849 80.9044 134.838 79.6316 134.838H65.5312C64.2584 134.838 63.2266 135.849 63.2266 137.096Z" fill="#848484"/>
<path fill-rule="evenodd" clip-rule="evenodd" d="M66.4518 129.355C66.4518 130.602 67.4571 131.613 68.6973 131.613H74.5288C75.769 131.613 76.7744 130.602 76.7744 129.355C76.7744 128.108 75.769 127.097 74.5288 127.097H68.6973C67.4571 127.097 66.4518 128.108 66.4518 129.355Z" fill="#848484"/>
<path fill-rule="evenodd" clip-rule="evenodd" d="M39.0327 76.6181C21.8382 76.6181 7.899 62.6792 7.899 45.4843C7.89871 28.3067 21.8553 14.3501 39.033 14.3501C45.8438 14.3501 52.1366 16.5361 57.2607 20.2434C58.3061 20.9997 59.7666 20.7654 60.5229 19.72C61.2792 18.6747 61.0449 17.2141 59.9996 16.4578C54.1061 12.1939 46.8607 9.67763 39.033 9.67763C19.2748 9.67763 3.22623 25.7262 3.22656 45.4844C3.22656 65.2598 19.2577 81.2905 39.0327 81.2905H66.4879C70.789 81.2905 72.9431 76.0902 69.9017 73.0489L65.9501 69.0973C71.4823 62.7958 74.8395 54.53 74.8395 45.4841C74.8395 37.9977 72.538 31.0433 68.6066 25.2948C67.8783 24.2298 66.4245 23.9569 65.3594 24.6853C64.2944 25.4137 64.0215 26.8675 64.7499 27.9325C68.1673 32.9294 70.167 38.9694 70.167 45.4841C70.167 54.082 66.6847 61.8624 61.0479 67.4989C60.6098 67.937 60.3636 68.5313 60.3636 69.1509C60.3636 69.7705 60.6098 70.3647 61.0479 70.8029L66.5978 76.3528C66.626 76.381 66.6366 76.3995 66.64 76.4063C66.6438 76.4137 66.6457 76.4196 66.6469 76.4264C66.6496 76.4423 66.65 76.4775 66.6315 76.5221C66.613 76.5668 66.5879 76.5914 66.5746 76.6008C66.5691 76.6047 66.5635 76.6076 66.5556 76.6101C66.5484 76.6124 66.5278 76.6181 66.4879 76.6181H39.0327Z" fill="#848484"/>
<path fill-rule="evenodd" clip-rule="evenodd" d="M29.6912 57.2872C29.081 57.2872 28.479 57.0609 28.0159 56.6067C27.0905 55.6991 27.0905 54.2278 28.0159 53.3202L34.3305 47.1267C35.2558 46.2192 35.2558 44.7478 34.3305 43.8403L28.0159 37.6469C27.0905 36.7393 27.0905 35.268 28.0159 34.3604C28.9408 33.4531 30.4413 33.4527 31.3667 34.3603C31.3667 34.3603 31.3668 34.3604 31.3667 34.3603L37.6813 40.5538C38.1257 40.9896 38.7284 41.2345 39.3568 41.2345C39.9853 41.2345 40.588 40.9896 41.0323 40.5538L47.3472 34.3604C48.2722 33.4531 49.7727 33.4527 50.6982 34.3604C51.6235 35.268 51.6235 36.7393 50.6982 37.6468L44.3833 43.8403C43.9389 44.2761 43.6893 44.8672 43.6893 45.4835C43.6893 46.0999 43.9389 46.691 44.3833 47.1268L50.6982 53.3202C51.6235 54.2277 51.6235 55.6988 50.6984 56.6064C50.6983 56.6065 50.6983 56.6066 50.6982 56.6067M31.3667 56.6067C31.3667 56.6067 31.3668 56.6067 31.3667 56.6067L37.6813 50.4133C38.1257 49.9775 38.7284 49.7326 39.3568 49.7326C39.9853 49.7326 40.588 49.9774 41.0323 50.4133L47.3472 56.6067C47.8104 57.0609 48.4123 57.2872 49.0225 57.2872C49.6324 57.2872 50.2348 57.0608 50.6982 56.6067M29.6912 57.2872C30.3015 57.2872 30.9037 57.0608 31.3667 56.6067L29.6912 57.2872ZM24.6649 59.8932C26.0525 61.2541 27.8756 61.9351 29.6912 61.9351C31.5065 61.9351 33.33 61.2542 34.7178 59.8932L39.3569 55.3431L43.9962 59.8932C45.3839 61.2541 47.207 61.9351 49.0225 61.9351C50.8383 61.9351 52.6615 61.2537 54.0489 59.8935L54.0491 59.8932C56.8252 57.1705 56.8252 52.7564 54.0491 50.0337L49.4097 45.4835L54.0491 40.9334C56.8252 38.2107 56.8252 33.7965 54.0491 31.0739C51.2732 28.3513 46.7721 28.351 43.9962 31.0739C43.9962 31.0739 43.9963 31.0738 43.9962 31.0739L39.3569 35.624L34.7178 31.0739C31.9418 28.3513 27.4408 28.351 24.6649 31.0739M24.6649 31.0739C21.8889 33.7965 21.8888 38.2107 24.6648 40.9333C24.6648 40.9333 24.6648 40.9333 24.6648 40.9333L29.304 45.4835L24.6649 50.0337C24.6649 50.0337 24.6649 50.0337 24.6649 50.0337C21.8888 52.7564 21.8888 57.1705 24.6649 59.8932" fill="#848484"/>
<path fill-rule="evenodd" clip-rule="evenodd" d="M89.6776 58.065C89.6776 64.1222 94.5876 69.0327 100.645 69.0327C106.703 69.0327 111.613 64.1223 111.613 58.065C111.613 52.0076 106.703 47.0972 100.645 47.0972C94.5876 47.0972 89.6776 52.0077 89.6776 58.065ZM100.645 64.3871C97.1536 64.3871 94.3233 61.5567 94.3233 58.065C94.3233 54.5732 97.1536 51.7429 100.645 51.7429C104.137 51.7429 106.967 54.5734 106.967 58.065C106.967 61.5566 104.137 64.3871 100.645 64.3871Z" fill="#848484"/>
<path fill-rule="evenodd" clip-rule="evenodd" d="M121.936 40.645C121.936 45.6337 125.98 49.6772 130.968 49.6772C135.957 49.6772 140.001 45.6337 140.001 40.645C140.001 35.6567 135.957 31.6127 130.968 31.6127C125.98 31.6127 121.936 35.6567 121.936 40.645ZM130.968 45.0888C128.514 45.0888 126.525 43.0994 126.525 40.645C126.525 38.1908 128.514 36.2012 130.968 36.2012C133.423 36.2012 135.412 38.1908 135.412 40.645C135.412 43.0994 133.423 45.0888 130.968 45.0888Z" fill="#848484"/>
<path fill-rule="evenodd" clip-rule="evenodd" d="M107.166 32.2309C108.119 33.1275 109.663 33.1275 110.616 32.2309L116.705 26.4999C117.658 25.6034 117.658 24.1497 116.705 23.2532C115.752 22.3566 114.208 22.3566 113.255 23.2532L107.166 28.9841C106.214 29.8807 106.214 31.3343 107.166 32.2309Z" fill="#848484"/>
<path fill-rule="evenodd" clip-rule="evenodd" d="M116.705 32.2309C117.658 31.3343 117.658 29.8807 116.705 28.9841L110.616 23.2532C109.663 22.3566 108.119 22.3566 107.166 23.2532C106.214 24.1497 106.214 25.6034 107.166 26.4999L113.255 32.2309C114.208 33.1275 115.752 33.1275 116.705 32.2309Z" fill="#848484"/>
<path fill-rule="evenodd" clip-rule="evenodd" d="M9.06614 92.2257C9.96968 93.1292 11.4346 93.1292 12.3381 92.2257L19.9689 84.5949C20.8724 83.6914 20.8724 82.2264 19.9689 81.3229C19.0654 80.4194 17.6004 80.4194 16.6969 81.3229L9.06614 88.9537C8.1626 89.8572 8.1626 91.3221 9.06614 92.2257Z" fill="#848484"/>
<path fill-rule="evenodd" clip-rule="evenodd" d="M19.9689 92.2257C20.8724 91.3221 20.8724 89.8572 19.9689 88.9537L12.3381 81.3229C11.4346 80.4194 9.96968 80.4194 9.06614 81.3229C8.1626 82.2264 8.1626 83.6914 9.06614 84.5949L16.6969 92.2257C17.6004 93.1292 19.0654 93.1292 19.9689 92.2257Z" fill="#848484"/>
</g>
</svg>
