<svg width="12" height="15" viewBox="0 0 12 15" fill="none" xmlns="http://www.w3.org/2000/svg">
<path d="M5.99993 -5.5C3.22466 -5.5 0.953613 -3.24207 0.953613 -0.466728V10.8248C0.953613 12.8513 2.60884 14.5 4.63536 14.5C6.66188 14.5 8.31712 12.8513 8.31712 10.8248V0.961941C8.31712 -0.315752 7.27763 -1.35524 5.99993 -1.35524C4.72224 -1.35524 3.68275 -0.315752 3.68275 0.961941V9.50048C3.68275 9.92704 4.02857 10.2729 4.45513 10.2729C4.88169 10.2729 5.22751 9.92704 5.22751 9.50048V0.961941C5.22751 0.536043 5.574 0.189559 5.99989 0.189559C6.42579 0.189559 6.77227 0.536043 6.77227 0.961941V10.8248C6.77227 11.9995 5.81001 12.9552 4.63533 12.9552C3.46064 12.9552 2.49838 11.9995 2.49838 10.8248V-0.466728C2.49838 -2.39024 4.07638 -3.9552 5.99993 -3.9552C7.92348 -3.9552 9.50149 -2.39028 9.50149 -0.466728V10.1017C9.50149 10.5283 9.84731 10.8741 10.2739 10.8741C10.7004 10.8741 11.0463 10.5283 11.0463 10.1017V-0.466728C11.0463 -3.24207 8.77524 -5.5 5.99993 -5.5Z" fill="#2B7AE8"/>
</svg>
