<svg width="20" height="21" viewBox="0 0 20 21" fill="none" xmlns="http://www.w3.org/2000/svg">
<path d="M17.1827 7.54183C16.3077 3.69183 12.9493 1.9585 9.99935 1.9585C9.99935 1.9585 9.99935 1.9585 9.99101 1.9585C7.04935 1.9585 3.68268 3.6835 2.80768 7.5335C1.83268 11.8335 4.46601 15.4752 6.84935 17.7668C7.73268 18.6168 8.86601 19.0418 9.99935 19.0418C11.1327 19.0418 12.266 18.6168 13.141 17.7668C15.5243 15.4752 18.1577 11.8418 17.1827 7.54183ZM9.99935 11.7168C8.54935 11.7168 7.37435 10.5418 7.37435 9.09183C7.37435 7.64183 8.54935 6.46683 9.99935 6.46683C11.4493 6.46683 12.6243 7.64183 12.6243 9.09183C12.6243 10.5418 11.4493 11.7168 9.99935 11.7168Z" fill="#2B7AE8"/>
</svg>