<svg width="20" height="21" viewBox="0 0 20 21" fill="none" xmlns="http://www.w3.org/2000/svg">
<path d="M9.1835 16.75H6.25016C5.7335 16.75 5.27516 16.7333 4.86683 16.675C2.67516 16.4333 2.0835 15.4 2.0835 12.5833V8.41667C2.0835 5.6 2.67516 4.56667 4.86683 4.325C5.27516 4.26667 5.7335 4.25 6.25016 4.25H9.1335" stroke="#212426" stroke-width="1.5" stroke-linecap="round" stroke-linejoin="round"/>
<path d="M12.5161 4.25H13.7494C14.2661 4.25 14.7244 4.26667 15.1328 4.325C17.3244 4.56667 17.9161 5.6 17.9161 8.41667V12.5833C17.9161 15.4 17.3244 16.4333 15.1328 16.675C14.7244 16.7333 14.2661 16.75 13.7494 16.75H12.5161" stroke="#212426" stroke-width="1.5" stroke-linecap="round" stroke-linejoin="round"/>
<path d="M12.5 2.16663V18.8333" stroke="#212426" stroke-width="1.5" stroke-linecap="round" stroke-linejoin="round"/>
<path d="M9.2451 10.5H9.25258" stroke="#212426" stroke-width="2" stroke-linecap="round" stroke-linejoin="round"/>
<path d="M5.9116 10.5H5.91909" stroke="#212426" stroke-width="2" stroke-linecap="round" stroke-linejoin="round"/>
</svg>
