<svg width="18" height="10" viewBox="0 0 18 10" fill="none" xmlns="http://www.w3.org/2000/svg">
<path fill-rule="evenodd" clip-rule="evenodd" d="M1.13412 0.751366C1.54768 0.549366 2.04666 0.720866 2.24862 1.13445C2.57203 1.7967 2.96605 2.40345 3.41803 2.94287C3.44119 2.96712 3.46261 2.99245 3.48228 3.01862C4.14177 3.78712 4.92052 4.41453 5.7807 4.86537C5.80342 4.87437 5.82594 4.88445 5.84821 4.89562C5.87402 4.90862 5.89886 4.9227 5.92271 4.93786C6.87042 5.40836 7.9125 5.66653 9 5.66653C10.0873 5.66653 11.1294 5.40836 12.0772 4.93786C12.1011 4.9227 12.1259 4.90862 12.1517 4.89562C12.1741 4.88445 12.1967 4.87437 12.2194 4.86537C13.0787 4.41495 13.8567 3.78845 14.5157 3.02112C14.5366 2.9932 14.5594 2.9662 14.5842 2.94045C15.0354 2.4017 15.4288 1.79587 15.7517 1.1347C15.9538 0.721199 16.4528 0.549699 16.8663 0.751699C17.2798 0.953783 17.4513 1.45278 17.2492 1.86628C16.9757 2.42637 16.6565 2.95703 16.2969 3.45162L17.5058 4.66062C17.8313 4.98611 17.8313 5.5137 17.5058 5.83912C17.1804 6.16462 16.6528 6.16462 16.3273 5.83912L15.2069 4.7187C14.7228 5.19503 14.1934 5.61753 13.6262 5.97661L14.3282 7.37628C14.5345 7.7877 14.3683 8.28845 13.9569 8.49478C13.5455 8.70112 13.0448 8.53486 12.8384 8.12353L12.1413 6.73361C11.4113 7.02253 10.6381 7.21403 9.83333 7.2927V8.99987C9.83333 9.46012 9.46025 9.8332 9 9.8332C8.53975 9.8332 8.16667 9.46012 8.16667 8.99987V7.2927C7.36192 7.21403 6.58862 7.02253 5.85864 6.73361L5.16156 8.12353C4.95523 8.53486 4.45447 8.70112 4.04307 8.49478C3.63168 8.28845 3.46544 7.7877 3.67177 7.37628L4.37378 5.97661C3.80654 5.61745 3.27718 5.19495 2.79311 4.71862L1.67259 5.83912C1.34715 6.16462 0.819517 6.16462 0.494075 5.83912C0.168642 5.5137 0.168642 4.98611 0.494075 4.66062L1.70328 3.45145C1.34371 2.95678 1.02456 2.42603 0.751 1.86578C0.549033 1.45228 0.720567 0.953282 1.13412 0.751366Z" fill="#212426"/>
</svg>
