<svg width="20" height="21" viewBox="0 0 20 21" fill="none" xmlns="http://www.w3.org/2000/svg">
<g clip-path="url(#clip0_2291_8413)">
<path d="M19.9139 13.2685C18.1617 9.85191 14.3481 6.75 9.99998 6.75C5.62131 6.75 1.81889 9.88973 0.0860742 13.2685C-0.0286914 13.4923 -0.0286914 13.7577 0.0860742 13.9815C1.8383 17.3981 5.65182 20.5 9.99998 20.5C14.9234 20.5 18.5526 16.6359 19.9139 13.9815C20.0287 13.7577 20.0287 13.4923 19.9139 13.2685ZM9.99998 18.9375C6.45404 18.9375 3.47756 16.5818 1.68139 13.625C3.45768 10.701 6.42467 8.3125 9.99998 8.3125C13.56 8.3125 16.5325 10.685 18.3186 13.625C16.5141 16.5952 13.5257 18.9375 9.99998 18.9375ZM0.246191 4.84266C0.534863 4.52199 1.02889 4.49613 1.34955 4.78484L3.08955 6.35152C3.41018 6.64027 3.43607 7.13422 3.14736 7.45488C2.85865 7.77559 2.36463 7.80137 2.044 7.5127L0.304004 5.94598C-0.0166211 5.6573 -0.0425195 5.16332 0.246191 4.84266ZM9.21873 4.40625V1.28125C9.21873 0.849805 9.5685 0.5 9.99998 0.5C10.4315 0.5 10.7812 0.849805 10.7812 1.28125V4.40625C10.7812 4.8377 10.4315 5.1875 9.99998 5.1875C9.5685 5.1875 9.21873 4.8377 9.21873 4.40625ZM4.2656 2.66621C4.0901 2.27203 4.26736 1.81023 4.66154 1.63473C5.05576 1.45922 5.51752 1.63648 5.69303 2.03066L6.88783 4.71426C7.06334 5.1084 6.88607 5.57023 6.49189 5.74574C6.09885 5.9207 5.6365 5.7452 5.46041 5.3498L4.2656 2.66621ZM16.8526 7.45488C16.5639 7.13426 16.5897 6.64027 16.9104 6.35152L18.6504 4.78484C18.971 4.49613 19.4651 4.52199 19.7538 4.84266C20.0425 5.16328 20.0166 5.65727 19.696 5.94598L17.956 7.5127C17.6352 7.80145 17.1413 7.77547 16.8526 7.45488ZM13.1121 4.71426L14.3069 2.03066C14.4824 1.63648 14.9442 1.45922 15.3384 1.63473C15.7326 1.81023 15.9098 2.27203 15.7343 2.66621L14.5395 5.34977C14.3632 5.74574 13.9004 5.92043 13.508 5.74574C13.1139 5.57023 12.9366 5.10844 13.1121 4.71426ZM9.99998 9.78711C7.88377 9.78711 6.16209 11.5088 6.16209 13.625C6.16209 15.7412 7.88377 17.4629 9.99998 17.4629C12.1162 17.4629 13.8379 15.7412 13.8379 13.625C13.8379 11.5088 12.1162 9.78711 9.99998 9.78711ZM9.99998 15.9004C8.74533 15.9004 7.72459 14.8796 7.72459 13.625C7.72459 12.3704 8.74533 11.3496 9.99998 11.3496C11.2546 11.3496 12.2754 12.3704 12.2754 13.625C12.2754 14.8796 11.2546 15.9004 9.99998 15.9004Z" fill="#212426"/>
</g>
<defs>
<clipPath id="clip0_2291_8413">
<rect width="20" height="20" fill="white" transform="translate(0 0.5)"/>
</clipPath>
</defs>
</svg>
