<svg width="24" height="20" viewBox="0 0 24 20" fill="none" xmlns="http://www.w3.org/2000/svg">
<path fill-rule="evenodd" clip-rule="evenodd" d="M0.166626 2.00008C0.166626 1.2637 0.76358 0.666748 1.49996 0.666748H22.5C23.2363 0.666748 23.8333 1.2637 23.8333 2.00008C23.8333 2.73646 23.2363 3.33341 22.5 3.33341H1.49996C0.76358 3.33341 0.166626 2.73646 0.166626 2.00008ZM0.166626 10.0001C0.166626 9.2637 0.76358 8.66675 1.49996 8.66675H14C14.7363 8.66675 15.3333 9.2637 15.3333 10.0001C15.3333 10.7365 14.7363 11.3334 14 11.3334H1.49996C0.76358 11.3334 0.166626 10.7365 0.166626 10.0001ZM0.166626 18.0001C0.166626 17.2637 0.76358 16.6667 1.49996 16.6667H22.5C23.2363 16.6667 23.8333 17.2637 23.8333 18.0001C23.8333 18.7365 23.2363 19.3334 22.5 19.3334H1.49996C0.76358 19.3334 0.166626 18.7365 0.166626 18.0001Z" fill="white"/>
</svg>
