<svg width="32" height="32" viewBox="0 0 32 32" fill="none" xmlns="http://www.w3.org/2000/svg">
<path fill-rule="evenodd" clip-rule="evenodd" d="M27.8333 24C27.8333 24.7364 27.2364 25.3333 26.5 25.3333L5.49998 25.3333C4.7636 25.3333 4.16665 24.7364 4.16665 24C4.16665 23.2636 4.7636 22.6667 5.49998 22.6667L26.5 22.6667C27.2364 22.6667 27.8333 23.2636 27.8333 24ZM27.8333 16C27.8333 16.7364 27.2364 17.3333 26.5 17.3333L14 17.3333C13.2636 17.3333 12.6666 16.7364 12.6666 16C12.6666 15.2636 13.2636 14.6667 14 14.6667L26.5 14.6667C27.2364 14.6667 27.8333 15.2636 27.8333 16ZM27.8333 8.00001C27.8333 8.73639 27.2364 9.33334 26.5 9.33334L5.49998 9.33334C4.7636 9.33334 4.16665 8.73639 4.16665 8.00001C4.16665 7.26363 4.7636 6.66667 5.49998 6.66667L26.5 6.66668C27.2364 6.66668 27.8333 7.26363 27.8333 8.00001Z" fill="white"/>
</svg>
