<svg width="452" height="120" viewBox="0 0 452 120" fill="none" xmlns="http://www.w3.org/2000/svg">
<mask id="mask0_4453_64019" style="mask-type:luminance" maskUnits="userSpaceOnUse" x="166" y="0" width="100" height="100">
<path d="M166 -7.62939e-06H266V100H166V-7.62939e-06Z" fill="white"/>
</mask>
<g mask="url(#mask0_4453_64019)">
<path fill-rule="evenodd" clip-rule="evenodd" d="M264.522 93.9517C265.338 93.9517 266 93.2956 266 92.4863V37.5731C266 35.5282 264.328 33.871 262.266 33.871H252.961C252.145 33.871 251.483 34.5271 251.483 35.3364C251.483 36.1457 252.145 36.8017 252.961 36.8017H262.266C262.695 36.8017 263.044 37.1472 263.044 37.5731V92.4863C263.044 93.2956 263.705 93.9517 264.522 93.9517Z" fill="#848484"/>
<path fill-rule="evenodd" clip-rule="evenodd" d="M188.379 64.1128C189.158 64.1128 189.79 63.465 189.79 62.6659V49.4307C189.79 48.6316 189.158 47.9838 188.379 47.9838C187.599 47.9838 186.968 48.6316 186.968 49.4307V62.6659C186.968 63.465 187.599 64.1128 188.379 64.1128Z" fill="#848484"/>
<path fill-rule="evenodd" clip-rule="evenodd" d="M224.847 33.8506C225.416 33.2854 225.416 32.3692 224.847 31.8041L220.288 27.2807C219.597 26.595 218.66 26.2099 217.683 26.2099H211.813C211.008 26.2099 210.355 26.8578 210.355 27.657C210.355 28.4562 211.008 29.1041 211.813 29.1041H217.683C217.886 29.1041 218.082 29.1844 218.226 29.3272L222.784 33.8506C223.354 34.4157 224.277 34.4157 224.847 33.8506Z" fill="#848484"/>
<path fill-rule="evenodd" clip-rule="evenodd" d="M232.937 35.2821C232.937 36.0615 233.589 36.6934 234.395 36.6934H245.591C246.397 36.6934 247.049 36.0615 247.049 35.2821C247.049 34.5026 246.397 33.8708 245.591 33.8708H234.395C233.589 33.8708 232.937 34.5026 232.937 35.2821Z" fill="#848484"/>
<path fill-rule="evenodd" clip-rule="evenodd" d="M188.951 90.7317C189.097 90.9122 189.317 91.0168 189.549 91.0168L188.951 90.7317ZM188.95 90.7314L169.109 66.2917C169.109 66.2917 169.109 66.2917 169.109 66.2917C168.7 65.787 169.058 65.0317 169.708 65.0317H215.693C216.502 65.0317 217.157 64.3747 217.157 63.5643C217.157 62.7538 216.502 62.0968 215.693 62.0968H169.708C166.591 62.0968 164.87 65.7207 166.837 68.1435L186.678 92.5837C187.381 93.449 188.435 93.9517 189.549 93.9517H264.535C265.1 93.9517 265.615 93.6259 265.858 93.1146C266.101 92.6032 266.028 91.9976 265.672 91.5583L242.864 63.465C242.162 62.5994 241.107 62.0968 239.993 62.0968H222.924C222.115 62.0968 221.459 62.7538 221.459 63.5643C221.459 64.3747 222.115 65.0317 222.924 65.0317H239.993C240.225 65.0317 240.445 65.1365 240.592 65.3168L261.456 91.0168H189.549" fill="#848484"/>
<path fill-rule="evenodd" clip-rule="evenodd" d="M225.15 85.7741C225.792 86.6075 226.79 87.0972 227.851 87.0972H247.442C249.448 87.0972 250.586 84.8269 249.372 83.2492L244.351 76.727C243.709 75.8932 242.71 75.4036 241.65 75.4036H222.058C220.052 75.4036 218.914 77.6741 220.129 79.2519C220.129 79.2519 220.129 79.252 220.129 79.252L225.15 85.7741ZM227.465 84.0321C227.465 84.032 227.465 84.032 227.465 84.0319L223.036 78.2796H241.65C241.801 78.2796 241.944 78.3495 242.036 78.4686L246.464 84.2212H227.851C227.699 84.2212 227.557 84.1514 227.465 84.0321Z" fill="#848484"/>
<path fill-rule="evenodd" clip-rule="evenodd" d="M205.517 85.6854C205.517 86.4648 206.161 87.0967 206.957 87.0967H215.77C216.565 87.0967 217.21 86.4648 217.21 85.6854C217.21 84.906 216.565 84.2741 215.77 84.2741H206.957C206.161 84.2741 205.517 84.906 205.517 85.6854Z" fill="#848484"/>
<path fill-rule="evenodd" clip-rule="evenodd" d="M207.532 80.847C207.532 81.6264 208.161 82.2583 208.936 82.2583H212.581C213.356 82.2583 213.984 81.6264 213.984 80.847C213.984 80.0676 213.356 79.4357 212.581 79.4357H208.936C208.161 79.4357 207.532 80.0676 207.532 80.847Z" fill="#848484"/>
<path fill-rule="evenodd" clip-rule="evenodd" d="M190.395 47.8864C179.649 47.8864 170.937 39.1746 170.937 28.4278C170.937 17.6917 179.66 8.96885 190.396 8.96885C194.652 8.96885 198.585 10.3351 201.788 12.6522C202.441 13.1249 203.354 12.9784 203.827 12.3251C204.3 11.6717 204.153 10.7589 203.5 10.2862C199.816 7.62127 195.288 6.04858 190.396 6.04858C178.047 6.04858 168.016 16.0789 168.017 28.4278C168.017 40.7874 178.036 50.8066 190.395 50.8066H207.555C210.243 50.8066 211.589 47.5565 209.689 45.6556L207.219 43.1859C210.676 39.2474 212.775 34.0813 212.775 28.4276C212.775 23.7486 211.336 19.4021 208.879 15.8093C208.424 15.1437 207.515 14.9731 206.85 15.4284C206.184 15.8836 206.013 16.7922 206.469 17.4579C208.605 20.5809 209.854 24.3559 209.854 28.4276C209.854 33.8013 207.678 38.6641 204.155 42.1869C203.881 42.4607 203.727 42.8321 203.727 43.2194C203.727 43.6066 203.881 43.978 204.155 44.2519L207.624 47.7206C207.641 47.7382 207.648 47.7498 207.65 47.754C207.652 47.7586 207.654 47.7623 207.654 47.7665C207.656 47.7765 207.656 47.7985 207.645 47.8264C207.633 47.8543 207.617 47.8697 207.609 47.8755C207.606 47.878 207.602 47.8798 207.597 47.8814C207.593 47.8828 207.58 47.8864 207.555 47.8864H190.395Z" fill="#848484"/>
<path fill-rule="evenodd" clip-rule="evenodd" d="M184.557 35.8046C184.176 35.8046 183.799 35.6631 183.51 35.3792C182.932 34.812 182.932 33.8924 183.51 33.3252L187.457 29.4543C188.035 28.8871 188.035 27.9675 187.457 27.4002L183.51 23.5294C182.932 22.9621 182.932 22.0425 183.51 21.4753C184.088 20.9082 185.026 20.908 185.604 21.4753C185.604 21.4753 185.604 21.4753 185.604 21.4753L189.551 25.3462C189.829 25.6186 190.205 25.7716 190.598 25.7716C190.991 25.7716 191.367 25.6186 191.645 25.3462L195.592 21.4753C196.17 20.9082 197.108 20.908 197.686 21.4753C198.265 22.0425 198.265 22.9621 197.686 23.5293L193.74 27.4002C193.462 27.6726 193.306 28.042 193.306 28.4273C193.306 28.8125 193.462 29.1819 193.74 29.4543L197.686 33.3252C198.265 33.8924 198.265 34.8118 197.687 35.3791C197.686 35.3791 197.686 35.3792 197.686 35.3792M185.604 35.3793C185.604 35.3793 185.604 35.3792 185.604 35.3793L189.551 31.5084C189.829 31.236 190.205 31.0829 190.598 31.0829C190.991 31.0829 191.367 31.236 191.645 31.5083L195.592 35.3792C195.881 35.6631 196.258 35.8046 196.639 35.8046C197.02 35.8046 197.397 35.6631 197.686 35.3792M184.557 35.8046C184.938 35.8046 185.315 35.663 185.604 35.3793L184.557 35.8046ZM181.416 37.4333C182.283 38.2839 183.422 38.7095 184.557 38.7095C185.692 38.7095 186.831 38.284 187.699 37.4333L190.598 34.5895L193.498 37.4333C194.365 38.2839 195.504 38.7095 196.639 38.7095C197.774 38.7095 198.913 38.2836 199.781 37.4335L199.781 37.4333C201.516 35.7316 201.516 32.9728 199.781 31.2711L196.881 28.4273L199.781 25.5834C201.516 23.8817 201.516 21.1229 199.781 19.4212C198.046 17.7196 195.233 17.7195 193.498 19.4212C193.498 19.4212 193.498 19.4212 193.498 19.4212L190.598 22.265L187.699 19.4212C185.964 17.7196 183.15 17.7195 181.416 19.4212M181.416 19.4212C179.681 21.1229 179.681 23.8817 181.416 25.5834C181.416 25.5834 181.416 25.5834 181.416 25.5834L184.315 28.4273L181.416 31.2711C181.416 31.2711 181.416 31.2711 181.416 31.2711C179.681 32.9728 179.68 35.7316 181.416 37.4333" fill="#848484"/>
<path fill-rule="evenodd" clip-rule="evenodd" d="M222.049 36.2907C222.049 40.0764 225.117 43.1455 228.903 43.1455C232.689 43.1455 235.758 40.0765 235.758 36.2907C235.758 32.5048 232.689 29.4358 228.903 29.4358C225.117 29.4358 222.049 32.5049 222.049 36.2907ZM228.903 40.242C226.721 40.242 224.952 38.473 224.952 36.2907C224.952 34.1083 226.721 32.3394 228.903 32.3394C231.086 32.3394 232.855 34.1084 232.855 36.2907C232.855 38.4729 231.086 40.242 228.903 40.242Z" fill="#848484"/>
<path fill-rule="evenodd" clip-rule="evenodd" d="M242.21 25.4032C242.21 28.5211 244.738 31.0483 247.855 31.0483C250.973 31.0483 253.5 28.5211 253.5 25.4032C253.5 22.2855 250.973 19.758 247.855 19.758C244.738 19.758 242.21 22.2855 242.21 25.4032ZM247.855 28.1805C246.321 28.1805 245.078 26.9372 245.078 25.4032C245.078 23.8693 246.321 22.6258 247.855 22.6258C249.389 22.6258 250.633 23.8693 250.633 25.4032C250.633 26.9372 249.389 28.1805 247.855 28.1805Z" fill="#848484"/>
<path fill-rule="evenodd" clip-rule="evenodd" d="M232.979 20.1442C233.574 20.7045 234.54 20.7045 235.135 20.1442L238.941 16.5623C239.536 16.002 239.536 15.0935 238.941 14.5331C238.345 13.9728 237.38 13.9728 236.785 14.5331L232.979 18.115C232.384 18.6753 232.384 19.5838 232.979 20.1442Z" fill="#848484"/>
<path fill-rule="evenodd" clip-rule="evenodd" d="M238.941 20.1442C239.536 19.5838 239.536 18.6753 238.941 18.115L235.135 14.5331C234.54 13.9728 233.574 13.9728 232.979 14.5331C232.384 15.0935 232.384 16.002 232.979 16.5623L236.785 20.1442C237.38 20.7045 238.345 20.7045 238.941 20.1442Z" fill="#848484"/>
<path fill-rule="evenodd" clip-rule="evenodd" d="M171.666 57.6409C172.231 58.2056 173.147 58.2056 173.711 57.6409L178.481 52.8717C179.045 52.307 179.045 51.3914 178.481 50.8267C177.916 50.262 177 50.262 176.436 50.8267L171.666 55.5959C171.102 56.1606 171.102 57.0762 171.666 57.6409Z" fill="#848484"/>
<path fill-rule="evenodd" clip-rule="evenodd" d="M178.481 57.6409C179.045 57.0762 179.045 56.1606 178.481 55.5959L173.711 50.8267C173.147 50.262 172.231 50.262 171.666 50.8267C171.102 51.3914 171.102 52.307 171.666 52.8717L176.436 57.6409C177 58.2056 177.916 58.2056 178.481 57.6409Z" fill="#848484"/>
</g>
<path d="M183.525 114V104.2H184.701L189.923 112.054V104.2H191.099V114H189.923L184.701 106.146V114H183.525ZM196.272 114.168C195.618 114.168 195.03 114.019 194.508 113.72C193.985 113.421 193.57 113.001 193.262 112.46C192.963 111.909 192.814 111.265 192.814 110.528C192.814 109.791 192.968 109.151 193.276 108.61C193.584 108.059 193.999 107.635 194.522 107.336C195.054 107.037 195.646 106.888 196.3 106.888C196.953 106.888 197.541 107.037 198.064 107.336C198.586 107.635 198.997 108.059 199.296 108.61C199.604 109.151 199.758 109.791 199.758 110.528C199.758 111.265 199.604 111.909 199.296 112.46C198.988 113.001 198.568 113.421 198.036 113.72C197.513 114.019 196.925 114.168 196.272 114.168ZM196.272 113.16C196.673 113.16 197.046 113.062 197.392 112.866C197.737 112.67 198.017 112.376 198.232 111.984C198.446 111.592 198.554 111.107 198.554 110.528C198.554 109.949 198.446 109.464 198.232 109.072C198.026 108.68 197.751 108.386 197.406 108.19C197.06 107.994 196.692 107.896 196.3 107.896C195.898 107.896 195.525 107.994 195.18 108.19C194.834 108.386 194.554 108.68 194.34 109.072C194.125 109.464 194.018 109.949 194.018 110.528C194.018 111.107 194.125 111.592 194.34 111.984C194.554 112.376 194.83 112.67 195.166 112.866C195.511 113.062 195.88 113.16 196.272 113.16ZM205.098 117.08V107.056H206.162L206.274 108.204C206.498 107.868 206.815 107.565 207.226 107.294C207.646 107.023 208.178 106.888 208.822 106.888C209.513 106.888 210.115 107.047 210.628 107.364C211.141 107.681 211.538 108.115 211.818 108.666C212.107 109.217 212.252 109.842 212.252 110.542C212.252 111.242 212.107 111.867 211.818 112.418C211.538 112.959 211.137 113.389 210.614 113.706C210.101 114.014 209.499 114.168 208.808 114.168C208.239 114.168 207.73 114.051 207.282 113.818C206.843 113.585 206.507 113.258 206.274 112.838V117.08H205.098ZM208.682 113.146C209.149 113.146 209.559 113.039 209.914 112.824C210.269 112.6 210.549 112.292 210.754 111.9C210.959 111.508 211.062 111.051 211.062 110.528C211.062 110.005 210.959 109.548 210.754 109.156C210.549 108.764 210.269 108.461 209.914 108.246C209.559 108.022 209.149 107.91 208.682 107.91C208.215 107.91 207.805 108.022 207.45 108.246C207.095 108.461 206.815 108.764 206.61 109.156C206.405 109.548 206.302 110.005 206.302 110.528C206.302 111.051 206.405 111.508 206.61 111.9C206.815 112.292 207.095 112.6 207.45 112.824C207.805 113.039 208.215 113.146 208.682 113.146ZM213.889 114V103.92H215.065V114H213.889ZM219.302 114.168C218.724 114.168 218.243 114.07 217.86 113.874C217.478 113.678 217.193 113.417 217.006 113.09C216.82 112.763 216.726 112.409 216.726 112.026C216.726 111.317 216.997 110.771 217.538 110.388C218.08 110.005 218.817 109.814 219.75 109.814H221.626V109.73C221.626 109.123 221.468 108.666 221.15 108.358C220.833 108.041 220.408 107.882 219.876 107.882C219.419 107.882 219.022 107.999 218.686 108.232C218.36 108.456 218.154 108.787 218.07 109.226H216.866C216.913 108.722 217.081 108.297 217.37 107.952C217.669 107.607 218.038 107.345 218.476 107.168C218.915 106.981 219.382 106.888 219.876 106.888C220.847 106.888 221.575 107.149 222.06 107.672C222.555 108.185 222.802 108.871 222.802 109.73V114H221.752L221.682 112.754C221.486 113.146 221.197 113.482 220.814 113.762C220.441 114.033 219.937 114.168 219.302 114.168ZM219.484 113.174C219.932 113.174 220.315 113.057 220.632 112.824C220.959 112.591 221.206 112.287 221.374 111.914C221.542 111.541 221.626 111.149 221.626 110.738V110.724H219.848C219.158 110.724 218.668 110.845 218.378 111.088C218.098 111.321 217.958 111.615 217.958 111.97C217.958 112.334 218.089 112.628 218.35 112.852C218.621 113.067 218.999 113.174 219.484 113.174ZM224.567 114V107.056H225.631L225.701 108.302C225.925 107.863 226.247 107.518 226.667 107.266C227.087 107.014 227.563 106.888 228.095 106.888C228.916 106.888 229.569 107.14 230.055 107.644C230.549 108.139 230.797 108.904 230.797 109.94V114H229.621V110.066C229.621 108.619 229.023 107.896 227.829 107.896C227.231 107.896 226.732 108.115 226.331 108.554C225.939 108.983 225.743 109.599 225.743 110.402V114H224.567ZM235.322 114C234.688 114 234.188 113.846 233.824 113.538C233.46 113.23 233.278 112.675 233.278 111.872V108.05H232.074V107.056H233.278L233.432 105.39H234.454V107.056H236.498V108.05H234.454V111.872C234.454 112.311 234.543 112.609 234.72 112.768C234.898 112.917 235.21 112.992 235.658 112.992H236.386V114H235.322ZM241.697 114V103.92H242.873V108.246C243.107 107.817 243.438 107.485 243.867 107.252C244.297 107.009 244.763 106.888 245.267 106.888C246.07 106.888 246.714 107.14 247.199 107.644C247.685 108.139 247.927 108.904 247.927 109.94V114H246.765V110.066C246.765 108.619 246.182 107.896 245.015 107.896C244.409 107.896 243.9 108.115 243.489 108.554C243.079 108.983 242.873 109.599 242.873 110.402V114H241.697ZM252.831 114.168C252.168 114.168 251.58 114.019 251.067 113.72C250.554 113.412 250.148 112.987 249.849 112.446C249.56 111.905 249.415 111.265 249.415 110.528C249.415 109.8 249.56 109.165 249.849 108.624C250.138 108.073 250.54 107.649 251.053 107.35C251.576 107.042 252.178 106.888 252.859 106.888C253.531 106.888 254.11 107.042 254.595 107.35C255.09 107.649 255.468 108.045 255.729 108.54C255.99 109.035 256.121 109.567 256.121 110.136C256.121 110.239 256.116 110.341 256.107 110.444C256.107 110.547 256.107 110.663 256.107 110.794H250.577C250.605 111.326 250.726 111.769 250.941 112.124C251.165 112.469 251.44 112.731 251.767 112.908C252.103 113.085 252.458 113.174 252.831 113.174C253.316 113.174 253.722 113.062 254.049 112.838C254.376 112.614 254.614 112.311 254.763 111.928H255.925C255.738 112.572 255.379 113.109 254.847 113.538C254.324 113.958 253.652 114.168 252.831 114.168ZM252.831 107.882C252.271 107.882 251.772 108.055 251.333 108.4C250.904 108.736 250.656 109.231 250.591 109.884H254.959C254.931 109.259 254.716 108.769 254.315 108.414C253.914 108.059 253.419 107.882 252.831 107.882ZM257.68 114V107.056H258.744L258.842 108.386C259.057 107.929 259.383 107.565 259.822 107.294C260.261 107.023 260.802 106.888 261.446 106.888V108.12H261.124C260.713 108.12 260.335 108.195 259.99 108.344C259.645 108.484 259.369 108.727 259.164 109.072C258.959 109.417 258.856 109.893 258.856 110.5V114H257.68ZM265.628 114.168C264.965 114.168 264.377 114.019 263.864 113.72C263.351 113.412 262.945 112.987 262.646 112.446C262.357 111.905 262.212 111.265 262.212 110.528C262.212 109.8 262.357 109.165 262.646 108.624C262.935 108.073 263.337 107.649 263.85 107.35C264.373 107.042 264.975 106.888 265.656 106.888C266.328 106.888 266.907 107.042 267.392 107.35C267.887 107.649 268.265 108.045 268.526 108.54C268.787 109.035 268.918 109.567 268.918 110.136C268.918 110.239 268.913 110.341 268.904 110.444C268.904 110.547 268.904 110.663 268.904 110.794H263.374C263.402 111.326 263.523 111.769 263.738 112.124C263.962 112.469 264.237 112.731 264.564 112.908C264.9 113.085 265.255 113.174 265.628 113.174C266.113 113.174 266.519 113.062 266.846 112.838C267.173 112.614 267.411 112.311 267.56 111.928H268.722C268.535 112.572 268.176 113.109 267.644 113.538C267.121 113.958 266.449 114.168 265.628 114.168ZM265.628 107.882C265.068 107.882 264.569 108.055 264.13 108.4C263.701 108.736 263.453 109.231 263.388 109.884H267.756C267.728 109.259 267.513 108.769 267.112 108.414C266.711 108.059 266.216 107.882 265.628 107.882Z" fill="#848484"/>
</svg>
