<svg width="20" height="20" viewBox="0 0 20 20" fill="none" xmlns="http://www.w3.org/2000/svg">
<path opacity="0.4" d="M14.9981 5.96667C14.9481 5.95834 14.8897 5.95834 14.8397 5.96667C13.6897 5.92501 12.7731 4.98334 12.7731 3.81667C12.7731 2.62501 13.7314 1.66667 14.9231 1.66667C16.1147 1.66667 17.0731 2.63334 17.0731 3.81667C17.0647 4.98334 16.1481 5.92501 14.9981 5.96667Z" stroke="#212426" stroke-width="1.5" stroke-linecap="round" stroke-linejoin="round"/>
<path opacity="0.4" d="M14.1396 12.0335C15.2813 12.2251 16.5396 12.0251 17.423 11.4335C18.598 10.6501 18.598 9.36681 17.423 8.58347C16.5313 7.99181 15.2563 7.7918 14.1146 7.9918" stroke="#212426" stroke-width="1.5" stroke-linecap="round" stroke-linejoin="round"/>
<path opacity="0.4" d="M4.97295 5.96667C5.02295 5.95834 5.08128 5.95834 5.13128 5.96667C6.28128 5.92501 7.19795 4.98334 7.19795 3.81667C7.19795 2.62501 6.23962 1.66667 5.04795 1.66667C3.85628 1.66667 2.89795 2.63334 2.89795 3.81667C2.90628 4.98334 3.82295 5.92501 4.97295 5.96667Z" stroke="#212426" stroke-width="1.5" stroke-linecap="round" stroke-linejoin="round"/>
<path opacity="0.4" d="M5.83121 12.0335C4.68954 12.2251 3.43121 12.0251 2.54788 11.4335C1.37288 10.6501 1.37288 9.36681 2.54788 8.58347C3.43954 7.99181 4.71454 7.7918 5.85621 7.9918" stroke="#212426" stroke-width="1.5" stroke-linecap="round" stroke-linejoin="round"/>
<path d="M10.0001 12.1914C9.95014 12.1831 9.89181 12.1831 9.84181 12.1914C8.69181 12.1498 7.77515 11.2081 7.77515 10.0414C7.77515 8.84977 8.73348 7.89143 9.92514 7.89143C11.1168 7.89143 12.0751 8.8581 12.0751 10.0414C12.0668 11.2081 11.1501 12.1581 10.0001 12.1914Z" stroke="#212426" stroke-width="1.5" stroke-linecap="round" stroke-linejoin="round"/>
<path d="M7.57522 14.8161C6.40022 15.5995 6.40022 16.8828 7.57522 17.6661C8.90855 18.5578 11.0919 18.5578 12.4252 17.6661C13.6002 16.8828 13.6002 15.5995 12.4252 14.8161C11.1002 13.9328 8.90855 13.9328 7.57522 14.8161Z" stroke="#212426" stroke-width="1.5" stroke-linecap="round" stroke-linejoin="round"/>
</svg>
