<svg width="20" height="20" viewBox="0 0 20 20" fill="none" xmlns="http://www.w3.org/2000/svg">
<path opacity="0.4" d="M14.998 5.96667C14.948 5.95834 14.8897 5.95834 14.8397 5.96667C13.6897 5.92501 12.773 4.98334 12.773 3.81667C12.773 2.62501 13.7313 1.66667 14.923 1.66667C16.1147 1.66667 17.073 2.63334 17.073 3.81667C17.0647 4.98334 16.148 5.92501 14.998 5.96667Z" stroke="#2B7AE8" stroke-width="1.5" stroke-linecap="round" stroke-linejoin="round"/>
<path opacity="0.4" d="M14.1396 12.0335C15.2812 12.2251 16.5396 12.0251 17.4229 11.4335C18.5979 10.6501 18.5979 9.36681 17.4229 8.58347C16.5312 7.99181 15.2562 7.7918 14.1146 7.9918" stroke="#2B7AE8" stroke-width="1.5" stroke-linecap="round" stroke-linejoin="round"/>
<path opacity="0.4" d="M4.97289 5.96667C5.02289 5.95834 5.08122 5.95834 5.13122 5.96667C6.28122 5.92501 7.19789 4.98334 7.19789 3.81667C7.19789 2.62501 6.23956 1.66667 5.04789 1.66667C3.85622 1.66667 2.89789 2.63334 2.89789 3.81667C2.90622 4.98334 3.82289 5.92501 4.97289 5.96667Z" stroke="#2B7AE8" stroke-width="1.5" stroke-linecap="round" stroke-linejoin="round"/>
<path opacity="0.4" d="M5.83127 12.0335C4.6896 12.2251 3.43127 12.0251 2.54794 11.4335C1.37294 10.6501 1.37294 9.36681 2.54794 8.58347C3.4396 7.99181 4.7146 7.7918 5.85627 7.9918" stroke="#2B7AE8" stroke-width="1.5" stroke-linecap="round" stroke-linejoin="round"/>
<path d="M10 12.1914C9.95002 12.1831 9.89169 12.1831 9.84169 12.1914C8.69169 12.1498 7.77502 11.2081 7.77502 10.0414C7.77502 8.84977 8.73336 7.89143 9.92502 7.89143C11.1167 7.89143 12.075 8.8581 12.075 10.0414C12.0667 11.2081 11.15 12.1581 10 12.1914Z" stroke="#2B7AE8" stroke-width="1.5" stroke-linecap="round" stroke-linejoin="round"/>
<path d="M7.57516 14.8161C6.40016 15.5995 6.40016 16.8828 7.57516 17.6661C8.90849 18.5578 11.0918 18.5578 12.4252 17.6661C13.6002 16.8828 13.6002 15.5995 12.4252 14.8161C11.1002 13.9328 8.90849 13.9328 7.57516 14.8161Z" stroke="#2B7AE8" stroke-width="1.5" stroke-linecap="round" stroke-linejoin="round"/>
</svg>
