<svg width="16" height="16" viewBox="0 0 16 16" fill="none" xmlns="http://www.w3.org/2000/svg">
<path d="M11.125 15.0625H9.92153L9.75384 14.375H6.24616L6.07847 15.0625H4.875C4.61612 15.0625 4.40625 15.2724 4.40625 15.5312C4.40625 15.7901 4.61612 16 4.875 16H11.125C11.3839 16 11.5938 15.7901 11.5938 15.5312C11.5938 15.2724 11.3839 15.0625 11.125 15.0625Z" fill="#FF8060"/>
<path d="M4.60913 10H7.53129V7.5H4.92163L4.60913 10Z" fill="#FF8060"/>
<path d="M7.53129 10.9375H4.49194L4.17944 13.4375H7.53129V10.9375Z" fill="#FF8060"/>
<path d="M8.46875 10.9375V13.4375H11.8206L11.5081 10.9375H8.46875Z" fill="#FF8060"/>
<path d="M8.46875 10H11.3909L11.0784 7.5H8.46875V10Z" fill="#FF8060"/>
<path d="M14.7358 7.85506C14.6836 7.64641 14.4961 7.5 14.281 7.5H12.0232L12.3357 10H15.272L14.7358 7.85506Z" fill="#FF8060"/>
<path d="M15.9858 12.8551L15.5064 10.9375H12.4529L12.7654 13.4375H15.531C15.836 13.4375 16.0598 13.1509 15.9858 12.8551Z" fill="#FF8060"/>
<path d="M0.0142279 12.8551C-0.0597409 13.1509 0.16404 13.4375 0.468978 13.4375H3.23463L3.54713 10.9375H0.493634L0.0142279 12.8551Z" fill="#FF8060"/>
<path d="M1.26425 7.85506L0.728027 10H3.66437L3.97687 7.5H1.719C1.5039 7.5 1.31643 7.64637 1.26425 7.85506Z" fill="#FF8060"/>
<path d="M5.12716 5.89694C5.18144 6.10481 5.36828 6.25 5.58153 6.25H10.4184C10.6317 6.25 10.8185 6.10481 10.8728 5.89697C10.9365 5.65341 10.9688 5.40419 10.9688 5.15625C10.9688 3.51928 9.63697 2.1875 8 2.1875C6.36303 2.1875 5.03125 3.51928 5.03125 5.15625C5.03125 5.40419 5.06353 5.65341 5.12716 5.89694Z" fill="#FF8060"/>
<path d="M12.6875 5.625C12.9464 5.625 13.1563 5.41513 13.1563 5.15625C13.1563 4.89737 12.9464 4.6875 12.6875 4.6875H11.878C11.8965 4.84125 11.9063 4.99762 11.9063 5.15625C11.9063 5.31256 11.8963 5.46913 11.8771 5.625H12.6875Z" fill="#FF8060"/>
<path d="M4.12197 4.6875H3.3125C3.05362 4.6875 2.84375 4.89737 2.84375 5.15625C2.84375 5.41513 3.05362 5.625 3.3125 5.625H4.12294C4.10372 5.46916 4.09375 5.31259 4.09375 5.15625C4.09375 4.99762 4.1035 4.84125 4.12197 4.6875Z" fill="#FF8060"/>
<path d="M8.46875 1.27822V0.46875C8.46875 0.209875 8.25888 0 8 0C7.74112 0 7.53125 0.209875 7.53125 0.46875V1.27822C7.685 1.25975 7.84137 1.25 8 1.25C8.15863 1.25 8.315 1.25975 8.46875 1.27822Z" fill="#FF8060"/>
<path d="M11.0725 2.74678L11.646 2.17325C11.8291 1.99019 11.8291 1.69341 11.646 1.51034C11.463 1.32728 11.1662 1.32728 10.9831 1.51034L10.4096 2.08388C10.6561 2.27759 10.8788 2.50031 11.0725 2.74678Z" fill="#FF8060"/>
<path d="M4.9275 2.74678C5.12122 2.50028 5.34394 2.27759 5.59041 2.08388L5.01688 1.51034C4.83382 1.32728 4.53703 1.32728 4.35397 1.51034C4.17091 1.69341 4.17091 1.99019 4.35397 2.17325L4.9275 2.74678Z" fill="#FF8060"/>
</svg>
