<svg width="25" height="24" viewBox="0 0 25 24" fill="none" xmlns="http://www.w3.org/2000/svg">
<path d="M12.5 14.25C13.7426 14.25 14.75 13.2426 14.75 12C14.75 10.7574 13.7426 9.75 12.5 9.75C11.2574 9.75 10.25 10.7574 10.25 12C10.25 13.2426 11.2574 14.25 12.5 14.25Z" stroke="#212426" stroke-miterlimit="10" stroke-linecap="round" stroke-linejoin="round"/>
<path d="M5 12.6601V11.3401C5 10.5601 5.6375 9.91507 6.425 9.91507C7.7825 9.91507 8.3375 8.95507 7.655 7.77757C7.265 7.10257 7.4975 6.22507 8.18 5.83507L9.4775 5.09257C10.07 4.74007 10.835 4.95007 11.1875 5.54257L11.27 5.68507C11.945 6.86257 13.055 6.86257 13.7375 5.68507L13.82 5.54257C14.1725 4.95007 14.9375 4.74007 15.53 5.09257L16.8275 5.83507C17.51 6.22507 17.7425 7.10257 17.3525 7.77757C16.67 8.95507 17.225 9.91507 18.5825 9.91507C19.3625 9.91507 20.0075 10.5526 20.0075 11.3401V12.6601C20.0075 13.4401 19.37 14.0851 18.5825 14.0851C17.225 14.0851 16.67 15.0451 17.3525 16.2226C17.7425 16.9051 17.51 17.7751 16.8275 18.1651L15.53 18.9076C14.9375 19.2601 14.1725 19.0501 13.82 18.4576L13.7375 18.3151C13.0625 17.1376 11.9525 17.1376 11.27 18.3151L11.1875 18.4576C10.835 19.0501 10.07 19.2601 9.4775 18.9076L8.18 18.1651C7.4975 17.7751 7.265 16.8976 7.655 16.2226C8.3375 15.0451 7.7825 14.0851 6.425 14.0851C5.6375 14.0851 5 13.4401 5 12.6601Z" stroke="#212426" stroke-miterlimit="10" stroke-linecap="round" stroke-linejoin="round"/>
</svg>
