<svg width="30" height="30" viewBox="0 0 30 30" fill="none" xmlns="http://www.w3.org/2000/svg">
<circle cx="14.5" cy="14.5" r="14" fill="white" stroke="#DBDEE5" stroke-dasharray="2 2"/>
<path d="M19.3332 10.6015C19.2849 10.5934 19.2285 10.5934 19.1802 10.6015C18.0685 10.5612 17.1824 9.65094 17.1824 8.52316C17.1824 7.37121 18.1088 6.44482 19.2607 6.44482C20.4126 6.44482 21.339 7.37927 21.339 8.52316C21.331 9.65094 20.4449 10.5612 19.3332 10.6015Z" stroke="#848484" stroke-opacity="0.6" stroke-linecap="round" stroke-linejoin="round"/>
<path d="M18.5034 16.4659C19.607 16.6512 20.8234 16.4578 21.6773 15.8859C22.8131 15.1287 22.8131 13.8881 21.6773 13.1309C20.8154 12.559 19.5829 12.3656 18.4792 12.559" stroke="#848484" stroke-opacity="0.6" stroke-linecap="round" stroke-linejoin="round"/>
<path d="M9.64231 10.6015C9.69064 10.5934 9.74703 10.5934 9.79536 10.6015C10.907 10.5612 11.7931 9.65094 11.7931 8.52316C11.7931 7.37121 10.8668 6.44482 9.71481 6.44482C8.56286 6.44482 7.63647 7.37927 7.63647 8.52316C7.64453 9.65094 8.53064 10.5612 9.64231 10.6015Z" stroke="#848484" stroke-opacity="0.6" stroke-linecap="round" stroke-linejoin="round"/>
<path d="M10.4721 16.4659C9.36844 16.6512 8.15205 16.4578 7.29816 15.8859C6.16233 15.1287 6.16233 13.8881 7.29816 13.1309C8.16011 12.559 9.39261 12.3656 10.4962 12.559" stroke="#848484" stroke-opacity="0.6" stroke-linecap="round" stroke-linejoin="round"/>
<path d="M14.5 16.6191C14.4516 16.611 14.3952 16.611 14.3469 16.6191C13.2352 16.5788 12.3491 15.6685 12.3491 14.5407C12.3491 13.3888 13.2755 12.4624 14.4275 12.4624C15.5794 12.4624 16.5058 13.3968 16.5058 14.5407C16.4977 15.6685 15.6116 16.5868 14.5 16.6191Z" stroke="#848484" stroke-opacity="0.6" stroke-linecap="round" stroke-linejoin="round"/>
<path d="M12.1558 19.1565C11.02 19.9138 11.02 21.1543 12.1558 21.9115C13.4447 22.7735 15.5553 22.7735 16.8442 21.9115C17.98 21.1543 17.98 19.9138 16.8442 19.1565C15.5633 18.3026 13.4447 18.3026 12.1558 19.1565Z" stroke="#848484" stroke-opacity="0.6" stroke-linecap="round" stroke-linejoin="round"/>
<circle cx="24.1666" cy="24.1668" r="5.33333" fill="#848484" stroke="white"/>
<path d="M21.75 24.5547V23.7676H23.7701V21.75H24.5633V23.7676H26.5833V24.5547H24.5633V26.5833H23.7701V24.5547H21.75Z" fill="white"/>
</svg>
