<svg width="20" height="20" viewBox="0 0 20 20" fill="none" xmlns="http://www.w3.org/2000/svg">
<path d="M18.0495 8.69944L17.2328 12.1828C16.5328 15.1911 15.1495 16.4078 12.5495 16.1578C12.1328 16.1244 11.6828 16.0494 11.1995 15.9328L9.7995 15.5994C6.3245 14.7744 5.2495 13.0578 6.06617 9.57444L6.88283 6.08277C7.0495 5.37444 7.2495 4.75777 7.4995 4.24944C8.4745 2.23277 10.1328 1.6911 12.9162 2.34944L14.3078 2.67444C17.7995 3.4911 18.8662 5.2161 18.0495 8.69944Z" stroke="#2B7AE8" stroke-width="1.5" stroke-linecap="round" stroke-linejoin="round"/>
<path opacity="0.4" d="M12.5513 16.1578C12.0346 16.5078 11.3846 16.7995 10.5929 17.0578L9.27626 17.4912C5.96793 18.5578 4.22626 17.6662 3.15126 14.3578L2.08459 11.0662C1.01793 7.75785 1.90126 6.00785 5.20959 4.94118L6.52626 4.50785C6.86793 4.39951 7.19293 4.30785 7.50126 4.24951C7.25126 4.75785 7.05126 5.37451 6.88459 6.08285L6.06793 9.57451C5.25126 13.0578 6.32626 14.7745 9.80126 15.5995L11.2013 15.9328C11.6846 16.0495 12.1346 16.1245 12.5513 16.1578Z" stroke="#2B7AE8" stroke-width="1.5" stroke-linecap="round" stroke-linejoin="round"/>
<path opacity="0.4" d="M10.5332 7.1084L14.5749 8.1334" stroke="#2B7AE8" stroke-width="1.5" stroke-linecap="round" stroke-linejoin="round"/>
<path opacity="0.4" d="M9.7168 10.3335L12.1335 10.9502" stroke="#2B7AE8" stroke-width="1.5" stroke-linecap="round" stroke-linejoin="round"/>
</svg>
