<svg width="20" height="20" viewBox="0 0 20 20" fill="none" xmlns="http://www.w3.org/2000/svg">
<path d="M18.0502 8.6996L17.2335 12.1829C16.5335 15.1913 15.1502 16.4079 12.5502 16.1579C12.1335 16.1246 11.6835 16.0496 11.2002 15.9329L9.80017 15.5996C6.32517 14.7746 5.25017 13.0579 6.06684 9.5746L6.8835 6.08293C7.05017 5.3746 7.25017 4.75793 7.50017 4.2496C8.47517 2.23293 10.1335 1.69127 12.9168 2.3496L14.3085 2.6746C17.8002 3.49127 18.8668 5.21627 18.0502 8.6996Z" stroke="#212426" stroke-width="1.5" stroke-linecap="round" stroke-linejoin="round"/>
<path opacity="0.4" d="M12.5503 16.158C12.0336 16.508 11.3836 16.7997 10.592 17.058L9.27528 17.4913C5.96695 18.558 4.22528 17.6663 3.15028 14.358L2.08362 11.0663C1.01695 7.75801 1.90028 6.00801 5.20862 4.94134L6.52528 4.50801C6.86695 4.39968 7.19195 4.30801 7.50028 4.24968C7.25028 4.75801 7.05028 5.37468 6.88362 6.08301L6.06695 9.57468C5.25028 13.058 6.32528 14.7747 9.80029 15.5997L11.2003 15.933C11.6836 16.0497 12.1336 16.1247 12.5503 16.158Z" stroke="#212426" stroke-width="1.5" stroke-linecap="round" stroke-linejoin="round"/>
<path opacity="0.4" d="M10.533 7.10856L14.5747 8.13356" stroke="#212426" stroke-width="1.5" stroke-linecap="round" stroke-linejoin="round"/>
<path opacity="0.4" d="M9.7168 10.3337L12.1335 10.9503" stroke="#212426" stroke-width="1.5" stroke-linecap="round" stroke-linejoin="round"/>
</svg>
