<svg width="18" height="19" viewBox="0 0 18 19" fill="none" xmlns="http://www.w3.org/2000/svg">
<path d="M13.5 5.87C13.455 5.8625 13.4025 5.8625 13.3575 5.87C12.3225 5.8325 11.4975 4.985 11.4975 3.935C11.4975 2.8625 12.36 2 13.4325 2C14.505 2 15.3675 2.87 15.3675 3.935C15.36 4.985 14.535 5.8325 13.5 5.87Z" stroke="#212426" stroke-linecap="round" stroke-linejoin="round"/>
<path d="M12.7274 11.3301C13.7549 11.5026 14.8874 11.3226 15.6824 10.7901C16.7399 10.0851 16.7399 8.93012 15.6824 8.22512C14.8799 7.69262 13.7324 7.51262 12.7049 7.69262" stroke="#212426" stroke-linecap="round" stroke-linejoin="round"/>
<path d="M4.47752 5.87C4.52252 5.8625 4.57502 5.8625 4.62002 5.87C5.65502 5.8325 6.48002 4.985 6.48002 3.935C6.48002 2.8625 5.61752 2 4.54502 2C3.47252 2 2.61002 2.87 2.61002 3.935C2.61752 4.985 3.44252 5.8325 4.47752 5.87Z" stroke="#212426" stroke-linecap="round" stroke-linejoin="round"/>
<path d="M5.25002 11.3301C4.22252 11.5026 3.09002 11.3226 2.29502 10.7901C1.23752 10.0851 1.23752 8.93012 2.29502 8.22512C3.09752 7.69262 4.24502 7.51262 5.27252 7.69262" stroke="#212426" stroke-linecap="round" stroke-linejoin="round"/>
<path d="M9.00006 11.4727C8.95506 11.4652 8.90256 11.4652 8.85756 11.4727C7.82256 11.4352 6.99756 10.5877 6.99756 9.53766C6.99756 8.46516 7.86006 7.60266 8.93256 7.60266C10.0051 7.60266 10.8676 8.47266 10.8676 9.53766C10.8601 10.5877 10.0351 11.4427 9.00006 11.4727Z" stroke="#212426" stroke-linecap="round" stroke-linejoin="round"/>
<path d="M6.81766 13.8353C5.76016 14.5403 5.76016 15.6953 6.81766 16.4003C8.01766 17.2028 9.98266 17.2028 11.1827 16.4003C12.2402 15.6953 12.2402 14.5403 11.1827 13.8353C9.99016 13.0403 8.01766 13.0403 6.81766 13.8353Z" stroke="#212426" stroke-linecap="round" stroke-linejoin="round"/>
</svg>
