<svg width="16" height="16" viewBox="0 0 16 16" fill="none" xmlns="http://www.w3.org/2000/svg">
<path d="M14.1227 7.99991C14.1227 8.25879 14.3326 8.46866 14.5915 8.46866C14.8504 8.46866 15.0602 8.25879 15.0602 7.99991C15.0602 6.11444 14.326 4.34182 12.9928 3.0086C11.9974 2.01322 10.7571 1.35191 9.40771 1.08057V2.04188C12.1074 2.679 14.1227 5.10841 14.1227 7.99991Z" fill="#50C878"/>
<path d="M2.08878 6.41589C2.51196 4.83654 3.52484 3.51654 4.94084 2.69901C5.16506 2.56957 5.24187 2.28292 5.1124 2.0587C4.98296 1.83445 4.69628 1.75764 4.47209 1.88714C2.83924 2.82986 1.67121 4.35201 1.18324 6.17323C0.818901 7.53295 0.86637 8.93776 1.30603 10.242L2.13728 9.76204C1.81087 8.68304 1.78971 7.53198 2.08878 6.41589Z" fill="#50C878"/>
<path d="M4.94082 13.3012C4.7166 13.1717 4.42995 13.2486 4.30051 13.4727C4.17104 13.697 4.24785 13.9837 4.47207 14.1131C4.85282 14.3329 5.24823 14.5149 5.65379 14.6589V13.6539C5.41079 13.5524 5.17263 13.435 4.94082 13.3012Z" fill="#50C878"/>
<path d="M10.3491 13.654V14.6574C11.493 14.2561 12.4991 13.5765 13.2907 12.6777L12.4594 12.1978C11.8692 12.8269 11.153 13.3221 10.3491 13.654Z" fill="#50C878"/>
<path d="M8.87346 10.1792L8.67065 10.936C8.5319 11.4539 8.11937 11.8423 7.59415 11.9498L6.59131 12.155V15.5314C6.59131 15.7902 6.80118 16.0001 7.06006 16.0001H8.94287C9.20175 16.0001 9.41162 15.7902 9.41162 15.5314V10.4381L8.92606 10.1577C8.90868 10.1652 8.89103 10.1721 8.87346 10.1792Z" fill="#50C878"/>
<path d="M6.04416 6.70564C6.46495 6.07148 7.18504 5.65236 8.00144 5.65236C8.16191 5.65236 8.31866 5.66864 8.47019 5.69945V0.468762C8.47019 0.238887 8.30348 0.0428867 8.07651 0.00604291C7.84995 -0.0305821 7.62944 0.102387 7.55673 0.320512L5.67391 5.96895C5.61776 6.13739 5.6616 6.32307 5.78716 6.44864L6.04416 6.70564Z" fill="#50C878"/>
<path d="M7.7651 10.6934L7.85898 10.3431C6.88685 10.2845 6.07285 9.63186 5.77535 8.74414L1.24482 11.3598C1.04573 11.4748 0.959352 11.7172 1.04095 11.9321C1.1111 12.117 1.28766 12.2346 1.47898 12.2346C1.5101 12.2346 1.5417 12.2315 1.5732 12.225L7.40629 11.0313C7.58023 10.9957 7.71913 10.8649 7.7651 10.6934Z" fill="#50C878"/>
<path d="M10.9241 7.00003C10.8063 6.86722 10.6237 6.81234 10.4521 6.85825L10.1013 6.95225C10.2595 7.26794 10.3491 7.62372 10.3491 8.00019C10.3491 8.59637 10.1253 9.14103 9.75787 9.55553L14.2893 12.1718C14.3627 12.2142 14.4435 12.2346 14.5234 12.2346C14.6604 12.2346 14.7951 12.1747 14.8868 12.0622C15.0322 11.8841 15.0269 11.6268 14.8744 11.4548L10.9241 7.00003Z" fill="#50C878"/>
<path d="M8.00146 9.41016C8.78027 9.41016 9.41162 8.77881 9.41162 8C9.41162 7.22119 8.78027 6.58984 8.00146 6.58984C7.22266 6.58984 6.59131 7.22119 6.59131 8C6.59131 8.77881 7.22266 9.41016 8.00146 9.41016Z" fill="#50C878"/>
</svg>
